<svg xmlns="http://www.w3.org/2000/svg" viewBox="0 0 32 32">
<defs>
  <linearGradient id="g" x1="0%" y1="0%" x2="0%" y2="100%">
    <stop offset="0%" stop-color="#e8c4a8"/>
    <stop offset="50%" stop-color="#c47834"/>
    <stop offset="100%" stop-color="#8b4513"/>
  </linearGradient>
</defs>
<path fill="url(#g)" d="M16 2c-1.5 2-2 4-2 6 0 3 1.5 5 3 7-1-1-3-2-5-2-2 0-4 1-5 3 2-1 4-1 6 0 2 1 3 3 3 5v2c0 2-1 4-3 5 3-1 5-1 7 0s3 2 3 4v3c0 1.5-.5 3-2 4 2-.5 3.5-2 4-4 .5 2 2 3.5 4 4-1.5-1-2-2.5-2-4v-3c0-2 1-3 3-4s4-1 7 0c-2-1-3-3-3-5v-2c0-2 1-4 3-5 2-1 4-1 6 0-1-2-3-3-5-3-2 0-4 1-5 2 1.5-2 3-4 3-7 0-2-.5-4-2-6-1 2-2 4-2 6s.5 4 1 5c-1-1-2-2-4-2s-3 1-4 2c.5-1 1-3 1-5s-1-4-2-6z"/>
</svg>
