<svg xmlns="http://www.w3.org/2000/svg" width="1280" height="1024" viewBox="0 0 1280 1024"><path fill="none" d="M0-104h1280V920H0Z"/><linearGradient id="a" x1="579.037" x2="775.007" y1="264.878" y2="515.412" gradientUnits="userSpaceOnUse"><stop offset="0" stop-color="#fbc299"/><stop offset="1" stop-color="#b26347"/></linearGradient><path fill="url(#a)" d="M634.125 518.31c-2.875 3.237-5.822 6.564-9.637 9.059-3.941 2.585-8.37 4.05-12.656 5.478-3.145 1.049-6.129 2.025-8.877 3.417-6.725 3.38-11.245 8.534-14.228 16.181l-5.045-1.97c3.453-8.86 8.968-15.097 16.85-19.056 3.11-1.555 6.419-2.658 9.619-3.725 4.14-1.374 8.063-2.658 11.39-4.863 3.128-2.043 5.66-4.882 8.335-7.901-2.513-.271-5.261-1.175-8.317-2.802-2.404-1.284-4.719-2.748-6.978-4.159-1.537-.958-3.02-1.898-4.52-2.766-2.26 2.965-5.045 6.183-8.896 7.991-2.73 1.284-5.586 1.664-8.334 2.025-1.664.217-3.219.434-4.683.832-4.195 1.12-7.883 3.76-11.806 6.563-4.43 3.164-8.986 6.436-14.608 7.63l-1.121-5.316c4.502-.94 8.425-3.76 12.565-6.726 4.14-2.965 8.407-6.02 13.56-7.394 1.808-.488 3.616-.723 5.37-.958 2.458-.326 4.79-.651 6.78-1.573 2.476-1.157 4.52-3.345 6.31-5.623a33 33 0 0 0-3.653-1.374c-5.243-1.555-15.44-2.875-22.057-.109l-2.08-5.008c8.552-3.561 20.557-1.609 25.692-.072 5.297 1.573 9.926 4.484 14.41 7.286 2.169 1.356 4.41 2.766 6.653 3.96 3.96 2.115 7.015 2.748 9.365 1.952 1.284-.452 2.947-1.374 4.448-2.513l.09.127c5.605-4.231 11.589-5.786 16.85-4.231l-1.537 5.207c-6.31-1.88-12.836 3.815-14.68 5.605-1.627 1.5-3.056 3.11-4.574 4.827m-67.293-27.227c.47-.687.922-1.41 1.374-2.115 2.007-3.2 3.905-6.202 7.359-7.467 1.482-.615 2.947-1.23 4.375-1.845 2.242-.976 4.43-1.916 6.617-2.748h.018c3.417-1.301 6.816-2.332 10.414-2.73 2.423-.27 4.9-.253 7.503-.217 2.025.018 4.104.037 6.201-.09 8.082-.488 12.945-.777 19.761-6.075l-3.326-4.285c-5.496 4.267-9.022 4.484-16.778 4.954-1.899.109-3.797.09-5.822.072-2.658-.036-5.406-.054-8.154.254-3.887.433-7.539 1.482-11.064 2.784-2.767.253-5.678-.597-7.829-2.369-.705-.578-1.392-1.283-2.097-2.043-.85-.885-1.718-1.79-2.766-2.621-3.725-2.965-8.371-3.923-12.855-4.502-3.508-.47-7.07-.76-10.595-.886l-.199 5.424c3.345.127 6.744.416 10.07.85 3.707.488 7.486 1.23 10.18 3.38.759.597 1.464 1.339 2.223 2.134.796.832 1.628 1.7 2.586 2.495a16 16 0 0 0 2.64 1.736c-1.971.85-3.978 1.717-5.985 2.459-15.982 5.984-34.442 6.237-50.641.669l-1.754 5.134c8.335 2.857 17.23 4.285 26.125 4.285 6.635 0 13.27-.814 19.67-2.405-.162.272-.343.543-.505.814a75 75 0 0 1-1.284 1.989c-4.43 6.599-12.385 12.276-21.262 15.187l1.682 5.152c10.179-3.38 18.947-9.69 24.118-17.374m43.446-2.531c3.977 2.748 8.804 4.14 13.632 4.14 3.923 0 7.846-.922 11.3-2.802 2.964-1.61 5.441-3.761 7.846-5.84l-3.562-4.104c-2.278 1.97-4.43 3.85-6.87 5.17-5.948 3.219-13.686 2.803-19.255-1.03zm147.204-13.253c-1.753-.687-3.543-1.464-5.351-2.224-7.25-3.11-14.771-6.327-22.69-6.002-3.327.145-6.69.47-9.944.796-3.417.343-6.907.687-10.36.795 1.085-.65 2.152-1.338 3.218-2.025 1.682-1.085 3.273-2.097 4.9-2.983a37.54 37.54 0 0 1 19.544-4.628l.199-5.424a43 43 0 0 0-22.346 5.297c-1.79.976-3.526 2.097-5.207 3.182-4.213 2.694-8.19 5.225-12.53 5.587-2.26-.525-4.483-1.212-6.78-1.935a172 172 0 0 0-4.248-1.284c-.073-.018-.109-.054-.181-.072a37 37 0 0 0-2.332-.615.3.3 0 0 1-.109-.036c-4.972-1.139-10.16-1.392-15.187-.669l.76 5.37a36.2 36.2 0 0 1 13.288.615c.741.18 1.5.397 2.242.614 3.544 1.121 5.659 3.363 7.521 7.955.85 2.098 1.465 4.267 2.116 6.582.596 2.079 1.21 4.23 2.006 6.345 2.188 5.822 5.406 9.818 9.546 11.86 2.152 1.067 4.647 1.628 7.287 1.628.56 0 1.12-.018 1.699-.072l-.47-5.406c-2.26.199-4.375-.145-6.093-.995-3.58-1.771-5.713-5.821-6.87-8.913-.723-1.898-1.266-3.85-1.862-5.912-.67-2.35-1.356-4.773-2.296-7.123-.344-.85-.76-1.754-1.212-2.64.145.036.271.072.416.108v.109c.145 0 .271-.018.398-.036.723.163 1.446.307 2.187.416 7.142 1.12 14.356.397 21.316-.29 3.182-.307 6.473-.65 9.637-.777 6.744-.271 13.632 2.694 20.321 5.568 1.863.796 3.689 1.591 5.497 2.297 6.418 2.513 13.74 4.917 21.297 4.917a33 33 0 0 0 6.762-.687l-1.12-5.315c-8.534 1.79-17.411-1.013-24.969-3.978m-95.243 66.75a48 48 0 0 0-1.212-1.482c-1.085-1.302-2.115-2.513-2.64-3.833-.596-1.446-.668-3.218-.759-5.08-.09-1.88-.18-3.815-.76-5.768a32 32 0 0 0 1.863-1.97c10.197-11.897 8.642-27.463-4.646-46.248-.272-.38-.56-.778-.85-1.157 7.232-7.594 11.68-15.874 13.162-24.697 2.82-16.742-5.352-30.248-13.705-43.229 2.279-3.85 5.135-7.34 8.172-10.956 5.19-6.201 10.559-12.602 12.765-21.352 2.097-8.299-.09-16.272-2.296-21.479-1.79-4.23-4.466-8.226-7.865-11.95.488-.29.958-.615 1.446-.886 5.28-3.002 10.089-6.419 14.627-10.252l.036.055c5.984-3.056 14.373-3.472 22.997-1.157 2.387.632 4.81 1.41 7.16 2.133 5.623 1.772 11.444 3.598 17.555 4.104 1.121.09 2.26.145 3.381.145a41.8 41.8 0 0 0 16.254-3.273l-2.097-5.008a36.6 36.6 0 0 1-17.086 2.73c-5.514-.452-10.793-2.115-16.38-3.869-2.405-.76-4.881-1.537-7.377-2.205-5.604-1.501-11.155-1.953-16.235-1.41 1.428-1.465 2.857-2.93 4.267-4.412 1.772-1.862 3.58-3.76 5.424-5.641 4.266-3.544 10.052-5.659 16.434-5.93 5.532-.217 11.354.795 18.369 3.218.723.253 1.446.506 2.188.777 2.73.977 5.568 2.007 8.606 2.568 1.717.307 3.453.47 5.225.47 5.604 0 11.281-1.573 16.181-4.538l-2.82-4.628c-5.316 3.218-11.716 4.447-17.61 3.362-2.604-.47-5.099-1.374-7.756-2.332-.742-.271-1.5-.542-2.242-.796-7.684-2.657-14.157-3.778-20.376-3.507-1.32.054-2.603.199-3.869.398 14.301-10.703 31.567-17.248 49.412-18.64l-.416-5.406c-21.605 1.663-42.415 10.504-58.614 24.896-2.206 1.952-4.321 4.013-6.382 6.11-.145.109-.29.217-.416.344l.036.054c-1.808 1.826-3.562 3.688-5.298 5.514-2.079 2.188-4.158 4.376-6.291 6.51-5.876 5.875-12.276 10.757-19.544 14.915-.922.524-1.826 1.103-2.73 1.663-1.827-1.609-3.833-3.146-5.985-4.628.741-3.345.38-7.051-1.067-10.577-1.518-3.706-3.959-7.05-6.888-9.383-1.735-1.392-3.001-3.092-3.797-5.08-1.554-3.942-.415-7.72 3.002-9.89 3.326-2.115 8.352-1.736 11.95.904 3.218 2.332 5.298 6.02 5.858 10.36.633 4.9-.741 9.998-3.706 13.65l4.212 3.417c3.887-4.791 5.714-11.427 4.882-17.772-.76-5.822-3.616-10.812-8.046-14.03-5.424-3.96-12.854-4.394-18.061-1.085-5.569 3.543-7.63 10.143-5.135 16.452 1.14 2.875 2.965 5.334 5.442 7.323 2.188 1.753 4.104 4.375 5.261 7.195.724 1.79 1.03 3.58.977 5.298-.109-.073-.217-.127-.326-.2-6.834-3.868-14.156-6.78-21.261-9.581a491 491 0 0 1-8.498-3.436c-9.275-3.923-18.82-9.112-30.012-16.344-5.117-3.308-11.047-7.394-16.163-12.71-1.14-1.193-2.26-2.422-3.4-3.67-3.272-3.616-6.67-7.376-10.901-10.16-6.51-4.285-14.808-7.305-25.366-9.24l-.977 5.334c9.836 1.79 17.465 4.556 23.36 8.425 3.67 2.423 6.815 5.894 9.87 9.275a178 178 0 0 0 3.508 3.797c5.515 5.713 11.752 10.034 17.122 13.505.325.217.633.398.958.615-2.857-.036-5.64.127-8.262.344-7.25.596-14.084 2.278-20.684 3.887-2.748.669-5.586 1.374-8.425 1.97-6.997 1.501-16.47.58-25.347-2.458l-1.772 5.134c6.671 2.296 13.523 3.49 19.743 3.49 3.02 0 5.876-.271 8.497-.85 2.911-.633 5.786-1.338 8.57-2.007 6.69-1.645 13.017-3.182 19.833-3.76 6.346-.525 13.723-.724 20.214 1.844l.036-.073c6.093 3.435 11.824 6.274 17.465 8.66.56.236 1.139.453 1.7.688-5.949 1.157-11.77 3.417-17.195 5.514l-2.278.886c-9.6 3.688-20.61 6.852-29.56 2.459l-2.386 4.863c3.94 1.935 8.081 2.694 12.258 2.694 7.34 0 14.825-2.35 21.623-4.972l2.296-.886c9.365-3.634 19.056-7.395 28.078-5.388 4.99 2.043 9.98 4.231 14.626 6.87 7.142 4.05 16.561 11.03 20.9 21.317 2.658 6.291 3.381 12.71 2.025 18.043-1.898 7.557-6.653 13.216-11.661 19.2-2.495 2.984-5.026 6.04-7.268 9.384-7.286-11.444-13.56-22.563-12.312-35.978.687-7.323 4.773-13.307 12.51-18.315l-2.946-4.556c-9.221 5.966-14.12 13.288-14.97 22.364-1.537 16.634 7.05 29.976 15.386 42.885 8.497 13.18 16.524 25.637 13.939 40.987-1.266 7.485-5.026 14.626-11.137 21.244-1.338-1.682-2.712-3.327-4.068-4.972-7.919-9.565-16.127-19.472-16.688-31.857a30.3 30.3 0 0 1 .38-6.545c1.284-7.792 5.532-15.114 9.402-21.388l-4.61-2.856c-4.141 6.707-8.68 14.59-10.125 23.358a37.5 37.5 0 0 0-.452 7.684c.65 14.21 9.437 24.806 17.935 35.057 2.874 3.471 5.586 6.744 7.99 10.16 11.825 16.742 13.452 29.687 4.973 39.595-2.08 2.423-4.72 4.43-7.503 6.563-4.629 3.544-9.438 7.196-11.716 12.981-1.5 3.815-1.663 7.991-1.826 12.023-.217 5.533-.416 10.288-3.833 12.91l3.29 4.302c5.443-4.158 5.732-10.974 5.967-16.995.144-3.58.29-7.286 1.464-10.251 1.718-4.375 5.714-7.43 9.944-10.649.56-.434 1.14-.868 1.7-1.302q.081.95.108 1.953c.09 2.133.199 4.574 1.157 6.888.85 2.098 2.26 3.779 3.508 5.261.38.452.741.886 1.103 1.338 2.82 3.598 4.592 8.1 4.99 12.656.126 1.41.144 3.96-1.14 5.117l3.616 4.031c1.591-1.428 3.4-4.266 2.911-9.618-.434-5.64-2.621-11.155-6.074-15.567m64.598-56.86c3.4 1.103 5.75 4.303 8.263 7.702 2.278 3.091 4.646 6.31 8.081 8.461 2.224 1.392 4.61 2.133 6.907 2.875 1.645.524 3.2 1.012 4.592 1.7l2.386-4.864c-1.771-.868-3.58-1.447-5.351-2.007-2.08-.65-4.032-1.284-5.677-2.296-2.55-1.591-4.52-4.249-6.581-7.07-2.893-3.94-5.894-8.009-10.956-9.654-3.418-1.103-6.021-1.609-7.684-1.464l.434 5.406c.669-.055 2.549.235 5.586 1.21m6.816 26.704c-3.67.723-7.141 2.06-10.486 3.344-3.67 1.41-7.141 2.712-10.74 3.255a44 44 0 0 0-4.05-.687c-.994-.127-1.988-.217-3-.326-2.26-.217-4.412-.416-6.419-.976-4.682-1.284-8.84-4.52-12.565-7.648-.633-2.495-1.392-4.972-2.55-7.358-2.35-4.9-5.93-8.498-10.088-10.161l-2.007 5.044c2.875 1.157 5.442 3.797 7.196 7.467 1.7 3.544 2.531 7.612 3.345 11.553l3.616 17.555c1.085 5.225 2.187 10.631 4.7 15.64 2.984 5.93 7.467 10.088 12.656 11.733l1.646-5.17c-3.725-1.176-7.16-4.466-9.438-9.004-2.188-4.376-3.236-9.42-4.249-14.32l-3.037-14.735c2.802 1.953 5.858 3.653 9.31 4.61 2.46.67 4.937.923 7.341 1.14.94.09 1.899.18 2.839.307 1.482.181 2.965.47 4.43.814v.036c.035 0 .053-.018.09-.018 8.66 2.025 16.85 6.635 22.96 13.053l3.924-3.742c-4.863-5.117-10.721-9.112-17.157-11.842 1.066-.398 2.115-.796 3.163-1.194 3.273-1.265 6.383-2.458 9.583-3.091 9.672-1.935 19.87 1.356 28.873 4.249l1.663-5.171c-9.13-2.893-20.502-6.545-31.549-4.357M589.65 276.567c-1.682-2.332-3.327-4.917-5.08-7.647-5.081-7.937-10.83-16.94-19.039-21.696l-2.73 4.683c7.07 4.104 12.222 12.15 17.194 19.924 1.79 2.802 3.471 5.442 5.243 7.9 9.528 13.217 19.761 22.799 31.296 29.271l1.32-2.368 2.423-1.211c-9.42-18.713-11.86-37.931-6.87-54.113l-5.19-1.59c-4.646 15.06-3.399 32.434 3.436 49.7-7.829-5.731-15.097-13.252-22.003-22.853m95.912 2.73c.308 4.9.145 8.77-.542 12.168a30.3 30.3 0 0 1-5.026 11.59l.217.162c-.217.235-.416.488-.651.723l3.905 3.76c6.726-6.996 10.974-15.946 14.41-23.792.795-1.826 1.554-3.67 2.314-5.515.994-2.404 2.007-4.881 3.11-7.25a81.3 81.3 0 0 1 10.576-16.976c4.375-5.388 9.04-9.275 14.717-12.24l-2.513-4.81c-6.346 3.327-11.553 7.648-16.416 13.633a85.8 85.8 0 0 0-11.282 18.116c-1.14 2.476-2.188 5.008-3.2 7.466a284 284 0 0 1-2.26 5.406c-.579 1.338-1.212 2.694-1.844 4.086.072-2.097.054-4.339-.109-6.834-.741-11.426-4.104-27.083-15.928-36.756l-3.435 4.195c10.323 8.389 13.288 22.509 13.957 32.868m-61.2 66.823v-4.05h-4.05c-9.78 0-17.717 7.937-17.717 17.718v4.05h4.05c9.799-.018 17.718-7.937 17.718-17.718m-49.917 26.306c9.763-.597 17.193-8.986 16.615-18.749l-.235-4.05-4.05.235c-9.763.597-17.194 8.986-16.615 18.75l.235 4.049zm110.503-33.032h-4.05v4.05c0 9.781 7.937 17.718 17.718 17.718h4.05v-4.05c-.018-9.78-7.937-17.718-17.718-17.718m32.525 6.87-.362 4.032c-.85 9.745 6.346 18.333 16.091 19.183l4.032.362.362-4.032c.85-9.745-6.346-18.333-16.091-19.183zm26.776.145 1.898 3.58c4.593 8.642 15.314 11.933 23.938 7.34l3.58-1.898-1.899-3.58c-4.592-8.642-15.313-11.932-23.937-7.34zm20.412-24.317-3.38 2.242 2.24 3.38c5.407 8.155 16.4 10.379 24.553 4.955l3.381-2.242-2.242-3.381c-5.406-8.154-16.398-10.378-24.552-4.954M536.784 365.99l.126 4.05 4.05-.127c9.781-.29 17.465-8.461 17.176-18.243l-.127-4.05-4.05.127c-9.78.29-17.483 8.461-17.175 18.243m8.045-29.506 1.898-3.58-3.58-1.899c-8.641-4.574-19.363-1.265-23.937 7.395l-1.898 3.58 3.58 1.898c8.66 4.574 19.363 1.266 23.937-7.394m-27.01-67.474 3.94-.94-.94-3.941c-2.278-9.51-11.842-15.368-21.352-13.09l-3.941.94.94 3.941c2.296 9.492 11.842 15.368 21.352 13.09m31.982 29.922 3.688-1.681-1.681-3.689c-4.068-8.895-14.59-12.8-23.486-8.714l-3.688 1.681 1.681 3.689c4.086 8.877 14.59 12.782 23.486 8.714m-51.256 9.872-2.08-3.472c-5.025-8.389-15.91-11.119-24.298-6.093l-3.471 2.08 2.079 3.47c5.026 8.39 15.91 11.12 24.299 6.094zm2.893-26.993-3.96-.85-.85 3.96c-2.042 9.563 4.032 18.983 13.597 21.026l3.959.85.85-3.96c2.06-9.564-4.032-18.983-13.596-21.026m-12.692 49.664-.036 4.05 4.05.036c9.78.09 17.772-7.774 17.862-17.555l.036-4.05-4.05-.036c-9.78-.09-17.772 7.774-17.862 17.555m132.217-56.499 1.102 3.906 3.906-1.103c9.42-2.64 14.897-12.42 12.258-21.84l-1.103-3.906-3.905 1.103c-9.42 2.658-14.898 12.42-12.258 21.84m-29.615-11.625 2.893-2.838c6.979-6.853 7.069-18.062.217-25.04l-2.839-2.893-2.892 2.838c-6.98 6.852-7.07 18.062-.217 25.04zm21.28-19.4 3.905-1.048c9.438-2.55 15.042-12.258 12.493-21.696l-1.048-3.905-3.906 1.049c-9.437 2.55-15.042 12.258-12.493 21.696zm43.337 10.45-.47 4.033c-1.121 9.708 5.84 18.513 15.548 19.634l4.032.47.47-4.032c1.121-9.708-5.84-18.513-15.548-19.634zm7.702-13.722 4.032.47.47-4.031c1.12-9.71-5.84-18.514-15.549-19.635l-4.032-.47-.47 4.032c-1.12 9.727 5.84 18.513 15.549 19.634m30.012 6.473 3.236 2.422 2.423-3.236c5.858-7.828 4.267-18.93-3.58-24.787l-3.236-2.423-2.423 3.237c-5.84 7.828-4.248 18.929 3.58 24.787m27.5 20.25-.959 3.94 3.941.959c9.51 2.314 19.093-3.508 21.407-13l.958-3.941-3.941-.958c-9.51-2.332-19.093 3.49-21.407 13m-168.503-21.443 2.657-3.056-3.055-2.658c-7.377-6.418-18.568-5.64-24.986 1.736l-2.658 3.055 3.056 2.658c7.376 6.418 18.567 5.641 24.986-1.735m10.974-7.106 3.815-1.374c9.202-3.29 13.993-13.433 10.703-22.636l-1.356-3.814-3.815 1.374c-9.202 3.29-13.993 13.433-10.703 22.635zm-13.18-7.087 3.96.904.903-3.96c2.17-9.546-3.796-19.02-13.342-21.189l-3.96-.904-.904 3.96c-2.17 9.528 3.797 19.02 13.343 21.189m177.199-4.881 3.76 1.5 1.501-3.76c3.616-9.095-.832-19.382-9.926-22.998l-3.76-1.5-1.5 3.76c-3.599 9.094.83 19.4 9.925 22.998m37.805 13.74 3.145-2.55-2.549-3.145c-6.165-7.594-17.32-8.75-24.914-2.585l-3.146 2.549 2.55 3.146c6.165 7.593 17.32 8.75 24.914 2.585m-24.68-16.507 4.033-.47c9.708-1.12 16.687-9.89 15.584-19.616l-.47-4.032-4.032.47c-9.708 1.121-16.687 9.89-15.566 19.617zm28.639 51.419 1.934 3.562 3.562-1.935c8.588-4.683 11.77-15.422 7.087-24.028l-1.934-3.562-3.562 1.935c-8.588 4.683-11.77 15.44-7.087 24.028m6.87 12.818-4.05-.054-.054 4.05c-.126 9.781 7.702 17.808 17.483 17.935l4.05.054.054-4.05c.127-9.78-7.702-17.808-17.483-17.935m31.73-15.024c-8.172-5.37-19.164-3.073-24.516 5.099l-2.224 3.38 3.381 2.224c8.172 5.37 19.165 3.074 24.516-5.098l2.224-3.381z"/><path fill="#f7bd95" d="M136.259 643.348q0 4.22-1.286 7.424-1.287 3.227-3.61 5.506-2.325 2.28-5.597 3.746-3.25 1.444-7.198 2.144l20.399 23.422q1.76 2.1 4.58 3.566 2.822 1.443 6.341 1.444v3.52h-20.85l-21.843-26.762q-2.19-2.64-3.768-3.61-1.67-.881-3.092-.88v17.262q0 4.58 1.06 7.04 1.062 2.46 5.01 3.001 2.483.429 6.702.429v3.52H78.153v-3.52q3.882 0 6.093-.88 2.19-.88 2.798-4.13.36-1.94.361-5.032v-40.64q0-3.7-.519-6.25-.541-2.55-3.362-3.272-1.67-.339-4.4-.52v-3.52h30.463q12.75 0 19.7 4.491 6.972 4.49 6.972 12.501m-13.742.429q0-5.8-3.52-9.14-3.52-3.36-9.41-3.361h-7.672q-1.58 0-1.58 1.512v24.821h5.732q7.92 0 12.185-3.046t4.265-10.786m90.554-18.3q8.62 0 15.367 2.91 6.724 2.889 11.396 7.289 4.49 4.242 7.65 10.515 3.18 6.297 3.18 14.578 0 3.948-.902 7.469a32.5 32.5 0 0 1-2.37 6.611 30.8 30.8 0 0 1-3.474 5.596 39 39 0 0 1-4.175 4.513q-4.67 4.311-11.395 7.176T213.07 695q-8.53 0-15.254-2.866-6.747-2.865-11.395-7.176-4.491-4.038-7.718-10.109-3.204-6.07-3.204-14.08 0-8.281 3.16-14.578 3.18-6.273 7.762-10.515 4.558-4.4 11.305-7.289 6.725-2.91 15.344-2.91m0 63.791q5.642 0 9.635-2.143 4.017-2.166 6.657-5.506 2.889-3.61 4.446-8.846 1.534-5.235 1.534-11.734 0-9.951-3.204-17.217-3.227-7.266-9.816-10.606-4.152-2.03-9.252-2.03-5.8 0-9.725 2.256-3.904 2.234-6.544 5.754-2.911 3.972-4.446 9.478-1.557 5.483-1.557 12.365 0 9.59 3.272 16.36 3.25 6.77 9.77 9.861 4.04 2.008 9.23 2.008m109.396-63.792q8.62 0 15.345 2.911 6.747 2.889 11.395 7.289 4.49 4.242 7.672 10.515 3.16 6.297 3.16 14.578 0 3.948-.88 7.469a34.4 34.4 0 0 1-2.37 6.611 30.8 30.8 0 0 1-3.475 5.596 39 39 0 0 1-4.174 4.513q-4.671 4.311-11.396 7.176Q330.997 695 322.467 695t-15.276-2.866q-6.725-2.865-11.396-7.176-4.49-4.038-7.694-10.109-3.205-6.07-3.205-14.08 0-8.281 3.16-14.578 3.159-6.273 7.74-10.515 4.58-4.4 11.305-7.289 6.747-2.91 15.366-2.91m0 63.792q5.642 0 9.636-2.143 3.994-2.166 6.634-5.506 2.91-3.61 4.445-8.846 1.557-5.235 1.557-11.734 0-9.951-3.226-17.217-3.205-7.266-9.816-10.606-4.13-2.03-9.23-2.03-5.8 0-9.725 2.256-3.927 2.234-6.567 5.754-2.888 3.972-4.445 9.478-1.534 5.483-1.534 12.365 0 9.59 3.249 16.36 3.272 6.77 9.77 9.861 4.063 2.008 9.252 2.008m139.138-43.55h-3.791q-.338-5.552-2.189-9.252-1.85-3.678-6.431-4.92-2.64-.609-6.16-.609h-2.211q-1.92 0-3.52.09-1.58.09-2.89.43-.97.27-1.42.744-.43.496-.43 1.467v46.1q0 4.4 1.106 6.793 1.083 2.37 4.513 3.249 2.392.7 6.25.79v3.52h-36.871v-3.52q4.581-.09 7.74-1.196 3.182-1.083 3.971-4.784.361-2.03.361-4.852v-46.1q0-1.671-1.286-2.076-1.286-.407-3.046-.564a100 100 0 0 0-4.739-.09q-3.43 0-6.25.338-2.82.36-4.92 1.67-2.64 1.782-3.79 4.896-1.151 3.114-1.242 7.875h-3.43l.88-19.36h68.915zM517.228 695q-3.09 0-5.596-.429-2.505-.45-4.626-1.24a25.6 25.6 0 0 1-4.04-1.941 70 70 0 0 1-3.97-2.55l-1.76 5.28h-2.1l-1.33-22.452h3.43q.54 3.88 2.166 7.175 1.625 3.317 4.22 5.687t6.024 3.746q3.43 1.354 7.74 1.354 4.851 0 8.417-1.67t5.235-4.852q1.06-1.918 1.06-4.4 0-2.55-.79-3.949-.789-1.4-2.391-2.73-1.85-1.4-5.01-2.911-3.249-1.49-8.349-3.43-10.312-3.95-15.231-9.23-4.942-5.19-4.942-12.32 0-3.52 1.015-6.296 1.016-2.775 2.776-4.919a17.2 17.2 0 0 1 4.084-3.656 24.5 24.5 0 0 1 5.077-2.482q3.95-1.308 8.8-1.309 5.281 0 9.095 1.58a33.1 33.1 0 0 1 7.175 4.062l1.58-4.4h2.121l.97 19h-3.43q-.879-3.002-2.346-5.687a19.8 19.8 0 0 0-3.52-4.739 14.85 14.85 0 0 0-4.83-3.249q-2.775-1.196-6.295-1.196-2.46 0-4.671.61-2.19.608-3.859 1.85a9.65 9.65 0 0 0-2.685 3.046q-1.015 1.805-1.015 4.084t.744 3.61q.746 1.31 2.166 2.46 2.37 1.94 5.371 3.16 2.978 1.24 6.68 2.572 5.37 2.008 9.815 4.31 4.446 2.28 7.875 5.619a23.7 23.7 0 0 1 3.882 5.37q1.49 2.91 1.489 7.311 0 5.01-2.166 8.575-2.144 3.565-5.145 5.935-3.43 2.572-8.191 4.107-4.74 1.534-10.719 1.534m147.938-69.524q8.62 0 15.344 2.911 6.725 2.889 11.396 7.289 4.49 4.242 7.65 10.515 3.18 6.297 3.181 14.578 0 3.948-.88 7.469a33.5 33.5 0 0 1-2.392 6.611 30.8 30.8 0 0 1-3.475 5.596 36.4 36.4 0 0 1-4.174 4.513q-4.65 4.311-11.396 7.176Q673.695 695 665.166 695q-8.553 0-15.277-2.866-6.747-2.865-11.395-7.176-4.491-4.038-7.695-10.109-3.227-6.07-3.227-14.08 0-8.281 3.182-14.578 3.159-6.273 7.74-10.515 4.58-4.4 11.305-7.289 6.724-2.91 15.367-2.91m0 63.792q5.62 0 9.635-2.143 3.994-2.166 6.634-5.506 2.912-3.61 4.446-8.846 1.534-5.235 1.534-11.734 0-9.951-3.204-17.217-3.226-7.266-9.816-10.606-4.13-2.03-9.229-2.03-5.821 0-9.726 2.256-3.926 2.234-6.566 5.754-2.91 3.972-4.446 9.478-1.534 5.483-1.534 12.365 0 9.59 3.25 16.36t9.77 9.861q4.04 2.008 9.252 2.008M790.832 695l-38.993-55.533h-.361v39.602q0 2.031.09 3.881t.542 3.295q.429 1.443 1.309 2.46.879 1.014 2.55 1.376 1.76.429 4.67.519v3.52h-26.13v-3.52q4.4-.09 6.815-1.196 2.415-1.083 2.956-4.965.338-2.37.338-6.52v-35.36q0-2.212-.09-4.153t-.519-3.52q-.451-1.58-1.331-2.685-.88-1.083-2.46-1.625-1.85-.519-4.829-.7v-3.52h24.551l35.45 50.863h.361v-35.721q0-2.031-.09-3.881t-.52-3.295q-.45-1.445-1.33-2.505t-2.46-1.421q-1.85-.43-4.761-.52v-3.52h26.153v3.52q-4.4.09-6.815 1.197-2.437 1.083-2.956 4.964-.36 2.46-.361 6.521V695zm161.138-51.652q0 4.22-1.286 7.424-1.285 3.227-3.61 5.506t-5.596 3.746q-3.25 1.444-7.199 2.144l20.422 23.422q1.737 2.1 4.558 3.566 2.82 1.443 6.34 1.444v3.52h-20.85l-21.82-26.762q-2.211-2.64-3.791-3.61-1.67-.881-3.092-.88v17.262q0 4.58 1.061 7.04t5.032 3.001q2.46.429 6.68.429v3.52h-34.932v-3.52q3.86 0 6.07-.88 2.19-.88 2.799-4.13.36-1.94.36-5.032v-40.64q0-3.7-.518-6.25-.542-2.55-3.34-3.272-1.692-.339-4.423-.52v-3.52h30.463q12.75 0 19.7 4.491 6.972 4.49 6.972 12.501m-13.742.429q0-5.8-3.52-9.14-3.52-3.36-9.41-3.361h-7.65q-1.601 0-1.602 1.512v24.821h5.732q7.92 0 12.185-3.046t4.265-10.786m85.274 50.343h-31.41v-3.52q4.218-.09 6.295-1.241 2.054-1.128 2.595-4.92.36-2.37.361-6.52v-35.36q0-2.122-.09-4.062t-.451-3.52q-.362-1.58-1.196-2.731-.836-1.128-2.234-1.67-1.67-.519-4.4-.7v-3.52h29.65v3.52q-3.948.272-5.754 1.58-1.806 1.332-2.257 4.942-.338 2.46-.338 6.16v36.24q0 2.121.09 3.972t.52 3.34q.45 1.488 1.33 2.504t2.55 1.376q1.76.52 4.74.61zm57.745.88q-3.092 0-5.596-.429-2.505-.45-4.626-1.24a25.5 25.5 0 0 1-4.04-1.941 70 70 0 0 1-3.971-2.55l-1.76 5.28h-2.099l-1.331-22.452h3.43q.54 3.88 2.166 7.175 1.625 3.317 4.22 5.687t6.025 3.746q3.429 1.354 7.74 1.354 4.851 0 8.417-1.67 3.564-1.67 5.235-4.852 1.06-1.918 1.06-4.4 0-2.55-.79-3.949-.789-1.4-2.391-2.73-1.851-1.4-5.01-2.911-3.25-1.49-8.35-3.43-10.311-3.95-15.23-9.23-4.943-5.19-4.943-12.32 0-3.52 1.016-6.296 1.015-2.775 2.775-4.919a17 17 0 0 1 4.107-3.656 24 24 0 0 1 5.055-2.482q3.95-1.308 8.8-1.309 5.28 0 9.094 1.58a33.1 33.1 0 0 1 7.176 4.062l1.58-4.4h2.12l.971 19h-3.43q-.88-3.002-2.324-5.687a20.7 20.7 0 0 0-3.52-4.739 15.1 15.1 0 0 0-4.852-3.249q-2.775-1.196-6.296-1.196-2.46 0-4.67.61-2.19.608-3.86 1.85a9.65 9.65 0 0 0-2.685 3.046q-1.014 1.805-1.015 4.084t.745 3.61q.744 1.31 2.166 2.46 2.37 1.94 5.37 3.16a146 146 0 0 0 6.68 2.572q5.37 2.008 9.816 4.31 4.445 2.28 7.875 5.619a23.7 23.7 0 0 1 3.881 5.37q1.49 2.91 1.49 7.311 0 5.01-2.167 8.575-2.144 3.565-5.145 5.935-3.43 2.572-8.19 4.107-4.74 1.534-10.72 1.534m95.135-63.972h-9.951q-2.28 0-2.821.519-.52.519-.52 2.73v22.362q5.62 0 9.05-.36 3.18-.362 5.167-1.332 1.963-.948 2.843-3.34.79-2.098 1.241-5.709h3.25v25.77h-3.25q-.45-3.16-1.24-5.348-.79-2.212-2.98-3.52-1.94-1.062-5.19-1.422-3.361-.27-8.89-.271v18.142q0 4.581 1.963 6.725 1.986 2.167 5.957 2.775 2.89.52 7.13.52 7.041 0 11.396-1.58t6.544-6.341q1.422-2.888 2.37-7.379h3.52l-1.4 20.151h-59.662v-3.52q3.791-.09 6.025-.97 2.257-.88 2.866-4.04.339-1.94.338-5.032v-40.64q0-3.7-.564-6.25t-3.385-3.272q-1.67-.339-4.31-.52v-3.52h55.624l.61 17.24h-3.792q-.699-5.19-2.91-8.123-2.19-2.956-7.109-3.926-3.271-.52-7.92-.52"/><path fill="#bc6c4c" d="M192.141 782.602H175.59v-9.84h10.447c1.012 0 1.765-.81 1.765-1.793 0-.984-.753-1.794-1.765-1.794h-10.447v-9.84h16.552c1.013 0 1.795-.81 1.795-1.765a1.767 1.767 0 0 0-1.795-1.794H172.03v30.385h20.111c1.013 0 1.795-.781 1.795-1.765 0-.955-.782-1.794-1.795-1.794m49.976-26.739c-.781-.202-1.562.087-1.996.781l-12.762 21.01-12.762-21.01c-.434-.694-1.215-.983-1.996-.781-.782.174-1.303.868-1.303 1.707v26.826c0 .984.782 1.765 1.794 1.765.926 0 1.766-.781 1.766-1.765v-20.43l10.996 18.115c.29.52.897.868 1.505.868s1.215-.347 1.534-.868l10.967-18.115v20.43c0 .984.81 1.765 1.765 1.765 1.013 0 1.794-.781 1.794-1.765V757.57c0-.839-.52-1.533-1.302-1.707m38.459 12.82c1.562-1.447 2.604-3.155 2.604-5.44 0-3.473-3.56-7.467-7.9-7.467H263.3v30.385h11.98c5.47 0 9.926-4.89 9.926-9.492 0-3.559-1.852-6.221-4.63-7.986m-13.717 13.919v-11.894h8.421c3.646 0 6.366 2.315 6.366 5.961 0 2.779-2.72 5.933-6.366 5.933Zm0-15.453v-7.813h8.421c2.518 0 4.34 2.257 4.34 3.906 0 2.518-1.822 3.907-4.34 3.907Zm60.799-.26c0-6.598-5.383-11.113-11.952-11.113h-10.215c-1.013 0-1.765.782-1.765 1.794v26.826c0 .984.752 1.765 1.765 1.765.955 0 1.766-.781 1.766-1.765V778h5.671l7.64 7.64c.318.346.81.52 1.244.52s.955-.174 1.245-.52a1.73 1.73 0 0 0 0-2.518l-5.325-5.296c5.643-1.013 9.926-5.035 9.926-10.939m-20.401 7.552v-15.105h8.45c4.745 0 8.391 2.778 8.391 7.552 0 4.775-3.646 7.553-8.392 7.553Zm61.637 9.26-12.067-26.796c-.29-.695-.955-1.129-1.65-1.129-.694 0-1.33.434-1.649 1.129L341.201 783.7c-.434.869 0 1.94.926 2.286.868.435 1.91 0 2.344-.954l3.906-8.219h13.456l3.82 8.219c.29.694.955 1.128 1.65 1.128.202 0 .463-.087.694-.174.897-.347 1.302-1.389.897-2.286m-18.954-10.446 5.238-11.17 5.122 11.17Zm61.84 4.225c-.78-.608-1.91-.492-2.517.29-2.431 3.153-5.904 4.832-9.84 4.832-7.031 0-12.5-4.601-12.5-11.633s5.469-11.633 12.5-11.633c3.387 0 6.454 1.273 8.856 3.646.637.694 1.765.694 2.46.029a1.686 1.686 0 0 0 0-2.518c-3.039-3.067-7.032-4.717-11.315-4.717-8.855 0-16.06 6.338-16.06 15.193s7.205 15.192 16.06 15.192c4.977 0 9.578-2.257 12.675-6.222.607-.723.463-1.852-.319-2.46m38.633 5.122H433.83v-9.84h10.476c.983 0 1.765-.81 1.765-1.793 0-.984-.782-1.794-1.765-1.794H433.83v-9.84h16.582c1.012 0 1.794-.81 1.794-1.765a1.767 1.767 0 0 0-1.794-1.794h-20.141v30.385h20.14c1.013 0 1.795-.781 1.795-1.765 0-.955-.782-1.794-1.794-1.794M500.938 796v-42.712h4.862V796zm76.28-13.398h-16.58v-9.84h10.446c1.013 0 1.794-.81 1.794-1.793 0-.984-.781-1.794-1.794-1.794h-10.447v-9.84h16.582c1.012 0 1.765-.81 1.765-1.765 0-1.012-.753-1.794-1.765-1.794h-20.141v30.385h20.14a1.736 1.736 0 0 0 1.766-1.765c0-.955-.753-1.794-1.765-1.794m39.27 0h-16.582V757.57c0-1.012-.81-1.794-1.765-1.794a1.767 1.767 0 0 0-1.794 1.794v26.826c0 .984.78 1.765 1.794 1.765h18.346c1.013 0 1.794-.781 1.794-1.765 0-.955-.78-1.794-1.794-1.794m38.805 0h-16.581v-9.84h10.475c.984 0 1.765-.81 1.765-1.793 0-.984-.78-1.794-1.765-1.794h-10.475v-9.84h16.581c1.013 0 1.794-.81 1.794-1.765a1.767 1.767 0 0 0-1.794-1.794h-20.14v30.385h20.14c1.013 0 1.794-.781 1.794-1.765 0-.955-.781-1.794-1.794-1.794m47.574-26.652c-.868-.434-1.852-.087-2.373.84l-12.675 23.612-12.674-23.613c-.521-.926-1.534-1.273-2.402-.84-.868.406-1.303 1.535-.81 2.374l14.266 26.854c.347.637.955.984 1.62.984.637 0 1.245-.347 1.592-.984l14.295-26.854c.463-.84.03-1.968-.839-2.373m39.587 27.751-12.067-26.796c-.29-.695-.955-1.129-1.65-1.129-.694 0-1.33.434-1.649 1.129L714.761 783.7c-.434.869 0 1.94.926 2.286.868.435 1.91 0 2.344-.954l3.906-8.219h13.456l3.82 8.219c.29.694.955 1.128 1.65 1.128.202 0 .463-.087.694-.174.897-.347 1.302-1.389.897-2.286M723.5 773.255l5.238-11.17 5.122 11.17Zm55.04-17.479h-24.482a1.767 1.767 0 0 0-1.794 1.794c0 .955.782 1.766 1.794 1.766h10.447v25.06c0 .984.781 1.765 1.794 1.765.984 0 1.765-.781 1.765-1.765v-25.06h10.476c.984 0 1.765-.81 1.765-1.766 0-1.012-.781-1.794-1.765-1.794m38.806 26.826h-16.582v-9.84h10.447c1.013 0 1.794-.81 1.794-1.793 0-.984-.781-1.794-1.794-1.794h-10.447v-9.84h16.582c.983 0 1.765-.81 1.765-1.765 0-1.012-.782-1.794-1.765-1.794h-20.141v30.385h20.14c.984 0 1.766-.781 1.766-1.765 0-.955-.782-1.794-1.765-1.794M867.87 796v-42.712h4.862V796zm57.905-40.224a1.767 1.767 0 0 0-1.794 1.794v26.826c0 .984.781 1.765 1.794 1.765.955 0 1.765-.781 1.765-1.765V757.57c0-1.012-.81-1.794-1.765-1.794m43.87 0c-.926 0-1.765.782-1.765 1.794v21.414l-17.16-22.426c-.521-.695-1.303-.955-2.026-.695-.695.26-1.215.955-1.215 1.707v26.826c0 .984.78 1.765 1.765 1.765.955 0 1.794-.781 1.794-1.765v-21.472l17.189 22.456c.347.492.868.781 1.418.781.174 0 .405-.029.579-.087.723-.26 1.215-.955 1.215-1.678V757.57a1.767 1.767 0 0 0-1.794-1.794m30.009 11.373c-2.518 0-4.341-.955-4.341-3.473s1.823-4.34 4.34-4.34c1.621 0 2.894.694 3.734 2.054.52.84 1.562 1.129 2.401.579.84-.52 1.1-1.592.58-2.43a7.86 7.86 0 0 0-6.714-3.763c-4.341 0-7.9 3.56-7.9 7.9 0 4.341 3.559 7.032 7.9 7.032 3.646 0 6.366 1.881 6.366 5.498 0 3.676-2.72 6.396-6.366 6.396-3.647 0-6.367-2.72-6.367-6.396 0-.983-.839-1.765-1.794-1.765-1.013 0-1.794.782-1.794 1.765 0 5.499 4.485 9.955 9.955 9.955s9.954-4.456 9.954-9.955c0-5.469-4.485-9.057-9.954-9.057m40.137-11.373h-10.187c-1.012 0-1.765.782-1.765 1.794v26.826c0 .984.753 1.765 1.765 1.765.955 0 1.795-.781 1.795-1.765V778h8.392c6.626 0 11.98-4.515 11.98-11.113s-5.354-11.112-11.98-11.112m-8.392 18.665v-15.105h8.392c4.803 0 8.45 2.778 8.45 7.552 0 4.775-3.647 7.553-8.45 7.553Zm40.281-18.665a1.767 1.767 0 0 0-1.794 1.794v26.826c0 .984.781 1.765 1.794 1.765.955 0 1.765-.781 1.765-1.765V757.57c0-1.012-.81-1.794-1.765-1.794m45.606 11.112c0-6.597-5.382-11.112-11.98-11.112h-10.186a1.767 1.767 0 0 0-1.794 1.794v26.826c0 .984.781 1.765 1.794 1.765.955 0 1.765-.781 1.765-1.765V778h5.643l7.64 7.64c.347.346.839.52 1.273.52s.955-.174 1.244-.52a1.78 1.78 0 0 0 0-2.518l-5.324-5.296c5.643-1.013 9.925-5.035 9.925-10.939m-20.4 7.553v-15.105h8.42c4.775 0 8.421 2.778 8.421 7.552 0 4.775-3.646 7.553-8.42 7.553Zm58.772 8.16h-16.581v-9.838h10.475c.984 0 1.765-.81 1.765-1.794s-.78-1.794-1.765-1.794h-10.475v-9.84h16.581c1.013 0 1.794-.81 1.794-1.765a1.767 1.767 0 0 0-1.794-1.794h-20.14v30.385h20.14c1.013 0 1.794-.781 1.794-1.765 0-.955-.781-1.794-1.794-1.794"/></svg>