<svg xmlns="http://www.w3.org/2000/svg" width="11092" height="1580" viewBox="0 0 11092 1580"><path fill="none" d="M-214-6066h11520v9216H-214Z"/><path fill="#f7bd95" d="M1012.331 660.133q0 37.978-11.576 66.816-11.576 29.042-32.494 49.553-20.918 20.513-50.365 33.713-29.246 12.997-64.785 19.293l183.59 210.804q15.841 18.888 41.227 32.088 25.386 12.998 57.068 12.998v31.682H947.343L750.755 876.218q-19.7-23.76-33.916-32.494-15.028-7.92-27.823-7.92v155.361q0 41.227 9.545 63.363 9.546 22.138 45.086 27.012 22.339 3.858 60.317 3.858v31.682H489.38v-31.682q34.932 0 54.834-7.92 19.7-7.92 25.183-37.166 3.249-17.465 3.249-45.288v-365.76q0-33.306-4.67-56.255-4.875-22.95-30.26-29.448-15.03-3.046-39.603-4.671v-31.682h274.168q114.745 0 177.295 40.415 62.754 40.414 62.754 112.51m-123.68 3.86q0-52.195-31.682-82.252-31.68-30.26-84.687-30.26h-69.05q-14.216.001-14.216 13.607v223.396H740.6q71.284 0 109.667-27.417 38.385-27.416 38.384-97.075m814.99-164.705q77.579 0 138.302 26.198 60.52 25.995 102.559 65.597 40.415 38.18 68.846 94.64 28.635 56.66 28.636 131.194 0 35.54-8.124 67.222-7.717 31.68-21.324 59.504-13.404 27.62-31.276 50.366-17.87 22.543-37.57 40.617-42.04 38.79-102.56 64.582T1703.64 1125q-76.767 0-137.287-25.792-60.723-25.791-102.559-64.582-40.414-36.353-69.456-90.983-28.838-54.63-28.838-126.726 0-74.533 28.432-131.195 28.636-56.458 69.862-94.639 41.024-39.601 101.747-65.597 60.52-26.198 138.1-26.198m0 574.128q50.77 0 86.717-19.293 36.15-19.497 59.911-49.554 25.996-32.494 40.008-79.61 13.81-47.116 13.81-105.605 0-89.562-28.838-154.956-29.042-65.394-88.343-95.45-37.368-18.28-83.266-18.28-52.194 0-87.53 20.31-35.135 20.107-58.896 51.787-26.197 35.744-40.008 85.297-14.013 49.35-14.013 111.292 0 86.311 29.448 147.238 29.244 60.925 87.936 88.75 36.353 18.074 83.063 18.074m984.566-574.128q77.58 0 138.1 26.198 60.723 25.995 102.559 65.597 40.415 38.18 69.05 94.64 28.432 56.66 28.432 131.194 0 35.54-7.92 67.222-7.922 31.68-21.325 59.504-13.404 27.62-31.275 50.366-17.872 22.543-37.572 40.617-42.039 38.79-102.558 64.582-60.725 25.792-137.49 25.792-76.769 0-137.49-25.792-60.52-25.791-102.56-64.582-40.414-36.353-69.252-90.983-28.839-54.63-28.839-126.726 0-74.533 28.432-131.195 28.433-56.458 69.659-94.639 41.226-39.601 101.747-65.597 60.722-26.198 138.302-26.198m0 574.128q50.772 0 86.719-19.293 35.946-19.497 59.707-49.554 26.199-32.494 40.008-79.61 14.013-47.116 14.013-105.605 0-89.562-29.041-154.956-28.839-65.394-88.343-95.45-37.165-18.28-83.063-18.28-52.193 0-87.53 20.31-35.337 20.107-59.099 51.787-25.995 35.744-40.008 85.297-13.81 49.35-13.81 111.292 0 86.311 29.245 147.238 29.447 60.925 87.937 88.75 36.555 18.074 83.265 18.074m1252.236-391.959h-34.118q-3.046-49.959-19.7-83.266-16.653-33.102-57.88-44.273-23.76-5.481-55.443-5.482H3753.4q-17.262 0-31.681.812-14.217.813-25.996 3.858-8.733 2.437-12.794 6.703-3.86 4.467-3.86 13.2v414.907q0 39.602 9.952 61.13 9.748 21.323 40.618 29.244 21.527 6.295 56.255 7.108v31.682h-331.845v-31.682q41.226-.813 69.66-10.764 28.635-9.747 35.743-43.054 3.25-18.278 3.25-43.664V573.009q0-15.03-11.577-18.684-11.576-3.656-27.417-5.077-16.449-.812-42.648-.812-30.87 0-56.256 3.045-25.385 3.25-44.272 15.029-23.76 16.044-34.119 44.07-10.357 28.026-11.17 70.877h-30.869l7.92-174.249h620.229zM4441.053 1125q-27.822 0-50.365-3.859-22.543-4.061-41.633-11.17a230 230 0 0 1-36.353-17.465q-17.466-10.358-35.743-22.949l-15.84 47.523h-18.888l-11.982-202.072h30.87q4.873 34.93 19.496 64.581 14.621 29.854 37.977 51.179 23.355 21.323 54.224 33.712 30.87 12.186 69.66 12.185 43.662 0 75.75-15.028t47.117-43.664q9.546-17.262 9.545-39.602 0-22.95-7.108-35.54t-21.528-24.574q-16.653-12.591-45.085-26.198-29.244-13.404-75.142-30.87-92.811-35.54-137.084-83.062-44.476-46.71-44.476-110.886 0-31.681 9.139-56.66 9.14-24.981 24.98-44.274 15.84-19.496 36.758-32.9 21.121-13.607 45.695-22.34 35.54-11.78 79.204-11.779 47.522.001 81.844 14.216 34.525 14.216 64.582 36.556l14.216-39.602h19.09l8.733 170.999h-30.87q-7.92-27.01-21.12-51.178-12.998-24.167-31.681-42.648-18.482-18.684-43.461-29.245-24.98-10.764-56.662-10.763-22.136 0-42.039 5.483-19.7 5.484-34.728 16.653-15.028 11.17-24.167 27.417t-9.14 36.759q0 20.51 6.703 32.494 6.7 11.779 19.496 22.136 21.324 17.466 48.335 28.433 26.808 11.169 60.113 23.151 48.336 18.075 88.344 38.79 40.008 20.512 70.877 50.569 21.324 22.34 34.93 48.335 13.405 26.2 13.405 65.8 0 45.085-19.496 77.173-19.293 32.088-46.304 53.412-30.87 23.152-73.72 36.962-42.65 13.81-96.467 13.81m1331.44-625.712q77.58 0 138.1 26.198 60.52 25.995 102.56 65.597 40.413 38.18 68.846 94.64 28.635 56.66 28.635 131.194 0 35.54-7.92 67.222-7.92 31.68-21.527 59.504-13.405 27.62-31.276 50.366-17.67 22.543-37.571 40.617-41.836 38.79-102.559 64.582-60.52 25.792-137.288 25.792-76.97 0-137.49-25.792-60.723-25.791-102.558-64.582-40.416-36.353-69.254-90.983-29.04-54.63-29.04-126.726 0-74.533 28.635-131.195 28.431-56.458 69.659-94.639 41.226-39.601 101.746-65.597 60.521-26.198 138.302-26.198m0 574.128q50.571 0 86.718-19.293 35.949-19.497 59.708-49.554 26.199-32.494 40.008-79.61t13.81-105.605q0-89.562-28.838-154.956-29.04-65.394-88.343-95.45-37.163-18.28-83.063-18.28-52.395 0-87.53 20.31-35.338 20.107-59.099 51.787-26.198 35.744-40.008 85.297-13.81 49.35-13.81 111.292 0 86.311 29.245 147.238 29.244 60.925 87.937 88.75 36.352 18.074 83.265 18.074M6903.487 1125l-350.935-499.798h-3.25V981.62q0 18.28.813 34.931.812 16.654 4.874 29.651 3.859 12.997 11.779 22.137 7.92 9.139 22.949 12.389 15.84 3.857 42.039 4.67v31.682H6396.58v-31.682q39.602-.813 61.333-10.764 21.73-9.748 26.604-44.679 3.046-21.324 3.046-58.692V653.025q0-19.902-.812-37.368t-4.671-31.681q-4.062-14.217-11.983-24.167-7.92-9.749-22.136-14.623-16.653-4.672-43.46-6.296v-31.682h220.958l319.05 457.76h3.25V643.48q0-18.278-.813-34.931-.811-16.654-4.67-29.65-4.062-12.999-11.983-22.544-7.92-9.544-22.136-12.794-16.654-3.859-42.851-4.671v-31.682h235.378v31.682q-39.603.813-61.332 10.764-21.936 9.749-26.605 44.679-3.25 22.135-3.25 58.692V1125zm1450.246-464.867q0 37.978-11.577 66.816-11.575 29.042-32.493 49.553-20.918 20.513-50.365 33.713-29.244 12.997-64.786 19.293l183.795 210.804q15.636 18.888 41.023 32.088 25.386 12.998 57.067 12.998v31.682h-187.652L8092.36 876.218q-19.903-23.76-34.12-32.494-15.027-7.92-27.823-7.92v155.361q0 41.227 9.546 63.363 9.545 22.138 45.289 27.012 22.136 3.858 60.113 3.858v31.682h-314.379v-31.682q34.729 0 54.631-7.92 19.7-7.92 25.183-37.166 3.249-17.465 3.249-45.288v-365.76q0-33.306-4.671-56.255-4.875-22.95-30.058-29.448-15.231-3.046-39.804-4.671v-31.682h274.168q114.744 0 177.295 40.415 62.753 40.414 62.754 112.51m-123.68 3.86q0-52.195-31.682-82.252-31.68-30.26-84.687-30.26h-68.847q-14.419.001-14.42 13.607v223.396h51.585q71.284 0 109.667-27.417 38.384-27.416 38.384-97.075m767.467 453.087h-282.698v-31.682q37.978-.813 56.662-11.17 18.48-10.154 23.354-44.273 3.251-21.324 3.25-58.692V653.025q0-19.09-.813-36.556-.811-17.466-4.061-31.68-3.25-14.217-10.764-24.575-7.515-10.154-20.106-15.028-15.028-4.672-39.602-6.296v-31.682H8989.6v31.682q-35.54 2.438-51.788 14.216-16.248 11.983-20.308 44.476-3.047 22.138-3.047 55.443v326.158q0 19.09.813 35.744.81 16.652 4.671 30.056 4.06 13.404 11.982 22.543 7.92 9.14 22.948 12.389 15.84 4.67 42.649 5.483zm519.7 7.92q-27.824 0-50.366-3.859-22.543-4.061-41.633-11.17a230 230 0 0 1-36.352-17.465q-17.466-10.358-35.744-22.949l-15.84 47.523h-18.888l-11.981-202.072h30.868q4.874 34.93 19.497 64.581 14.622 29.854 37.977 51.179 23.356 21.323 54.224 33.712 30.87 12.186 69.66 12.185 43.663 0 75.752-15.028 32.085-15.029 47.116-43.664 9.545-17.262 9.546-39.602 0-22.95-7.11-35.54-7.108-12.59-21.527-24.574-16.651-12.591-45.085-26.198-29.243-13.404-75.143-30.87-92.81-35.54-137.084-83.062-44.476-46.71-44.476-110.886 0-31.681 9.14-56.66 9.138-24.981 24.979-44.274 15.84-19.496 36.962-32.9 20.918-13.607 45.491-22.34 35.541-11.78 79.205-11.779 47.523.001 81.844 14.216 34.525 14.216 64.582 36.556l14.215-39.602h19.09l8.734 170.999h-30.87q-7.92-27.01-20.918-51.178-13.2-24.167-31.68-42.648-18.685-18.684-43.665-29.245-24.98-10.764-56.662-10.763-22.136 0-42.039 5.483-19.7 5.484-34.728 16.653-15.029 11.17-24.166 27.417-9.14 16.247-9.14 36.759 0 20.51 6.702 32.494 6.702 11.779 19.496 22.136 21.325 17.466 48.335 28.433 26.808 11.169 60.114 23.151 48.334 18.075 88.344 38.79 40.007 20.512 70.877 50.569 21.324 22.34 34.93 48.335 13.405 26.2 13.404 65.8 0 45.085-19.497 77.173-19.292 32.088-46.302 53.412-30.87 23.152-73.72 36.962-42.649 13.81-96.468 13.81m856.216-575.752h-89.561q-20.512 0-25.387 4.67-4.67 4.672-4.67 24.574v201.26q50.567 0 81.438-3.25 28.635-3.25 46.507-11.981 17.667-8.53 25.589-30.058 7.107-18.886 11.17-51.381h29.245v231.926h-29.246q-4.061-28.433-11.17-48.132-7.107-19.904-26.807-31.682-17.465-9.545-46.71-12.794-30.262-2.437-80.017-2.437v163.282q0 41.227 17.668 60.52 17.872 19.497 53.617 24.98 25.994 4.671 64.174 4.671 63.365 0 102.56-14.216t58.894-57.068q12.795-25.995 21.326-66.41h31.682l-12.592 181.358h-536.964v-31.682q34.118-.813 54.224-8.733 20.31-7.92 25.793-36.352 3.047-17.466 3.047-45.289v-365.76q0-33.306-5.078-56.255t-30.463-29.448q-15.027-3.046-38.79-4.671v-31.682h500.61l5.484 155.16h-34.118q-6.296-46.71-26.199-73.112-19.7-26.605-63.972-35.338-29.448-4.67-71.284-4.67"/></svg>