<svg xmlns="http://www.w3.org/2000/svg" width="1164" height="655" viewBox="0 0 1164 655"><path fill="none" d="m-57.363-274.68 1280 1.36-1.087 1024-1280-1.36Z"/><linearGradient id="a" x1="521.155" x2="717.125" y1="94.878" y2="345.412" gradientTransform="rotate(.06 581.935 214.506)" gradientUnits="userSpaceOnUse"><stop offset="0" stop-color="#fbc299"/><stop offset="1" stop-color="#b26347"/></linearGradient><path fill="url(#a)" d="M576.101 348.304c-2.878 3.234-5.829 6.558-9.646 9.049-3.944 2.58-8.375 4.04-12.662 5.464-3.146 1.046-6.131 2.019-8.88 3.408-6.73 3.373-11.255 8.522-14.246 16.166l-5.043-1.976c3.463-8.856 8.984-15.087 16.87-19.038 3.112-1.552 6.422-2.651 9.623-3.715 4.142-1.37 8.066-2.65 11.396-4.85 3.13-2.04 5.665-4.877 8.343-7.893-2.513-.273-5.26-1.18-8.314-2.81-2.403-1.287-4.716-2.754-6.974-4.167-1.536-.96-3.018-1.901-4.517-2.77-2.263 2.962-5.051 6.177-8.904 7.98-2.732 1.282-5.588 1.659-8.336 2.017-1.665.215-3.22.43-4.684.827-4.196 1.116-7.887 3.752-11.813 6.55-4.434 3.16-8.993 6.427-14.616 7.615l-1.116-5.317c4.503-.936 8.43-3.751 12.572-6.713 4.144-2.96 8.414-6.011 13.568-7.38 1.809-.486 3.617-.719 5.371-.952 2.459-.323 4.791-.646 6.782-1.566 2.477-1.154 4.524-3.34 6.316-5.616a33 33 0 0 0-3.652-1.378c-5.24-1.56-15.437-2.891-22.056-.132l-2.075-5.01c8.556-3.552 20.559-1.588 25.692-.045 5.295 1.578 9.921 4.494 14.402 7.301 2.168 1.358 4.407 2.77 6.649 3.967 3.958 2.12 7.012 2.756 9.363 1.962 1.284-.45 2.948-1.37 4.45-2.508l.09.127c5.61-4.225 11.596-5.774 16.855-4.213l-1.543 5.205c-6.308-1.886-12.84 3.802-14.686 5.59-1.628 1.498-3.059 3.106-4.579 4.822m-67.264-27.299c.471-.686.924-1.409 1.377-2.113 2.01-3.198 3.911-6.198 7.366-7.46a360 360 0 0 0 4.377-1.84c2.243-.973 4.432-1.911 6.62-2.74h.018c3.419-1.298 6.819-2.325 10.417-2.72 2.423-.267 4.9-.247 7.503-.209 2.025.02 4.104.042 6.201-.083 8.083-.48 12.946-.763 19.768-6.054l-3.322-4.289c-5.5 4.262-9.026 4.475-16.783 4.937-1.899.107-3.797.086-5.822.065-2.658-.038-5.406-.06-8.154.246-3.888.429-7.54 1.474-11.067 2.772-2.767.25-5.677-.603-7.826-2.377-.705-.58-1.391-1.285-2.095-2.046-.85-.885-1.716-1.791-2.764-2.624-3.721-2.968-8.366-3.931-12.85-4.515-3.507-.474-7.069-.768-10.594-.897l-.205 5.423c3.345.13 6.744.424 10.07.861 3.706.492 7.484 1.238 10.176 3.39.758.599 1.462 1.341 2.22 2.137.796.833 1.627 1.702 2.584 2.498.82.665 1.703 1.248 2.638 1.739-1.972.848-3.98 1.713-5.987 2.452-15.989 5.967-34.449 6.2-50.642.616l-1.76 5.132c8.332 2.866 17.226 4.303 26.12 4.313a81.7 81.7 0 0 0 19.673-2.385c-.162.272-.343.543-.505.814q-.628 1.005-1.287 1.988c-4.437 6.594-12.398 12.262-21.278 15.164l1.677 5.154c10.182-3.37 18.957-9.67 24.136-17.349m43.449-2.485c3.974 2.753 8.8 4.15 13.628 4.155 3.923.004 7.846-.914 11.302-2.79 2.966-1.607 5.445-3.755 7.853-5.832l-3.558-4.107c-2.28 1.967-4.434 3.845-6.875 5.162-5.952 3.213-13.69 2.789-19.254-1.05Zm147.218-13.096c-1.752-.69-3.542-1.468-5.349-2.23-7.246-3.118-14.764-6.343-22.683-6.026-3.327.141-6.69.463-9.945.785-3.418.34-6.908.68-10.361.784 1.086-.648 2.153-1.335 3.22-2.021 1.683-1.083 3.275-2.094 4.903-2.978a37.54 37.54 0 0 1 19.55-4.607l.204-5.424a43 43 0 0 0-22.352 5.273c-1.79.974-3.528 2.094-5.21 3.177-4.216 2.69-8.196 5.216-12.536 5.573-2.26-.527-4.482-1.216-6.778-1.942a172 172 0 0 0-4.247-1.288c-.072-.018-.108-.054-.18-.072a37 37 0 0 0-2.332-.618.3.3 0 0 1-.109-.036c-4.97-1.144-10.158-1.403-15.186-.685l.754 5.37a36.2 36.2 0 0 1 13.288.63c.74.18 1.5.398 2.24.616 3.544 1.125 5.656 3.37 7.513 7.963.848 2.099 1.461 4.269 2.11 6.584.593 2.08 1.205 4.232 1.999 6.347 2.182 5.825 5.395 9.824 9.533 11.87 2.151 1.07 4.645 1.634 7.285 1.636.56 0 1.12-.016 1.7-.07l-.465-5.406c-2.26.196-4.375-.15-6.092-1.002-3.578-1.775-5.706-5.827-6.86-8.92-.721-1.899-1.262-3.851-1.856-5.914-.667-2.35-1.35-4.775-2.288-7.126a34 34 0 0 0-1.21-2.64c.145.035.271.072.416.108v.109c.145 0 .271-.018.398-.036.723.164 1.446.309 2.187.418 7.14 1.128 14.355.413 21.316-.267 3.182-.304 6.474-.643 9.638-.767 6.744-.264 13.629 2.709 20.315 5.59 1.862.798 3.687 1.595 5.495 2.303 6.415 2.52 13.734 4.931 21.291 4.94a33 33 0 0 0 6.763-.68l-1.114-5.317c-8.536 1.781-17.41-1.031-24.965-4.004m-95.314 66.649a48 48 0 0 0-1.21-1.484c-1.084-1.303-2.113-2.515-2.636-3.836-.595-1.446-.665-3.218-.754-5.08-.088-1.88-.176-3.815-.754-5.77a32 32 0 0 0 1.865-1.967c10.21-11.886 8.671-27.454-4.597-46.253a46 46 0 0 0-.848-1.158c7.24-7.586 11.697-15.862 13.188-24.683 2.838-16.739-5.32-30.254-13.66-43.243 2.284-3.848 5.144-7.335 8.184-10.948 5.197-6.195 10.573-12.59 12.788-21.338 2.106-8.297-.073-16.272-2.273-21.482-1.786-4.232-4.457-8.23-7.852-11.958.488-.29.958-.614 1.447-.884 5.283-2.997 10.095-6.409 14.637-10.237l.036.055c5.988-3.05 14.377-3.457 22.999-1.132 2.386.634 4.808 1.415 7.157 2.14 5.621 1.778 11.44 3.61 17.55 4.123 1.122.091 2.26.147 3.382.148a41.8 41.8 0 0 0 16.257-3.255l-2.091-5.01a36.6 36.6 0 0 1-17.09 2.711c-5.513-.458-10.79-2.126-16.375-3.886-2.404-.763-4.88-1.542-7.375-2.213-5.602-1.507-11.153-1.965-16.233-1.427 1.43-1.464 2.86-2.927 4.271-4.408a527 527 0 0 1 5.43-5.635c4.27-3.54 10.058-5.648 16.44-5.912 5.533-.212 11.354.807 18.366 3.237.723.254 1.446.508 2.187.78 2.73.98 5.566 2.012 8.604 2.577 1.716.308 3.452.473 5.224.475 5.604.006 11.283-1.561 16.186-4.52l-2.815-4.632c-5.32 3.213-11.72 4.435-17.614 3.344-2.603-.473-5.097-1.38-7.753-2.34-.742-.273-1.5-.544-2.241-.8-7.682-2.664-14.153-3.792-20.373-3.528-1.32.053-2.603.196-3.87.394 14.313-10.688 31.586-17.214 49.433-18.587l-.41-5.407c-21.607 1.64-42.427 10.46-58.641 24.834-2.208 1.95-4.325 4.008-6.388 6.103-.146.109-.29.217-.417.344l.036.054c-1.81 1.824-3.566 3.684-5.304 5.508-2.081 2.186-4.162 4.372-6.298 6.503-5.882 5.87-12.287 10.744-19.56 14.895-.922.523-1.827 1.1-2.731 1.66-1.826-1.611-3.83-3.15-5.98-4.635.744-3.344.387-7.05-1.056-10.578-1.514-3.707-3.952-7.054-6.878-9.39-1.734-1.394-2.998-3.095-3.792-5.084-1.55-3.944-.407-7.72 3.013-9.887 3.328-2.111 8.354-1.727 11.949.917 3.215 2.335 5.291 6.026 5.847 10.366.628 4.9-.752 9.997-3.72 13.646l4.208 3.422c3.892-4.787 5.726-11.421 4.9-17.767-.753-5.823-3.604-10.816-8.03-14.039-5.42-3.965-12.85-4.407-18.06-1.104-5.573 3.537-7.641 10.135-5.153 16.447 1.137 2.876 2.96 5.337 5.434 7.328 2.186 1.756 4.1 4.38 5.254 7.201.722 1.79 1.026 3.581.971 5.299-.109-.073-.217-.127-.326-.2-6.83-3.876-14.149-6.795-21.25-9.604a490 490 0 0 1-8.495-3.445c-9.27-3.933-18.81-9.132-29.995-16.376-5.113-3.313-11.039-7.405-16.149-12.727-1.139-1.194-2.257-2.424-3.396-3.674-3.268-3.619-6.662-7.383-10.89-10.171-6.506-4.292-14.8-7.32-25.356-9.267l-.983 5.333c9.834 1.8 17.46 4.574 23.35 8.45 3.668 2.427 6.81 5.901 9.861 9.285q1.725 1.926 3.504 3.8c5.509 5.72 11.741 10.047 17.108 13.524.324.217.632.399.957.616-2.857-.039-5.64.121-8.262.335-7.251.589-14.087 2.263-20.688 3.865-2.75.666-5.588 1.369-8.428 1.961-6.998 1.494-16.47.563-25.344-2.484l-1.777 5.132c6.668 2.303 13.519 3.504 19.739 3.51 3.02.004 5.876-.264 8.498-.84 2.911-.63 5.787-1.332 8.572-1.998 6.692-1.638 13.02-3.168 19.837-3.74 6.346-.517 13.724-.709 20.212 1.866l.036-.073c6.09 3.442 11.817 6.287 17.456 8.679.56.236 1.138.454 1.7.69-5.951 1.15-11.775 3.404-17.202 5.495l-2.279.884c-9.604 3.678-20.617 6.83-29.562 2.428l-2.391 4.86c3.938 1.94 8.078 2.703 12.255 2.707 7.34.008 14.827-2.334 21.628-4.949l2.297-.884c9.369-3.624 19.064-7.374 28.084-5.358 4.987 2.049 9.975 4.242 14.618 6.886 7.138 4.057 16.55 11.047 20.878 21.339 2.65 6.294 3.367 12.714 2.005 18.045-1.906 7.555-6.667 13.21-11.68 19.188-2.5 2.981-5.033 6.034-7.279 9.376-7.274-11.452-13.536-22.577-12.274-35.991.695-7.322 4.787-13.302 12.53-18.302l-2.941-4.559c-9.228 5.956-14.134 13.273-14.994 22.348-1.555 16.633 7.018 29.984 15.34 42.902 8.483 13.189 16.497 25.654 13.896 41.001-1.274 7.484-5.042 14.62-11.16 21.232-1.336-1.683-2.708-3.33-4.062-4.976-7.91-9.573-16.107-19.489-16.655-31.875-.108-2.189.022-4.383.387-6.544 1.293-7.79 5.548-15.108 9.425-21.378l-4.607-2.861c-4.148 6.703-8.695 14.58-10.15 23.347a37.5 37.5 0 0 0-.46 7.684c.635 14.21 9.41 24.816 17.898 35.076 2.87 3.474 5.579 6.75 7.98 10.168 11.806 16.755 13.42 29.701 4.93 39.6-2.083 2.421-4.725 4.425-7.51 6.555-4.633 3.54-9.446 7.186-11.73 12.97-1.504 3.812-1.671 7.988-1.838 12.02-.223 5.533-.427 10.288-3.847 12.906l3.285 4.305c5.448-4.152 5.744-10.967 5.985-16.988.148-3.58.298-7.286 1.475-10.25 1.723-4.373 5.722-7.423 9.956-10.638.56-.433 1.14-.867 1.7-1.3q.081.95.107 1.953c.088 2.133.194 4.574 1.15 6.89.847 2.098 2.256 3.78 3.502 5.264.38.452.74.887 1.101 1.339 2.817 3.601 4.584 8.105 4.977 12.661.125 1.41.14 3.96-1.145 5.116l3.611 4.035c1.593-1.426 3.405-4.262 2.922-9.615-.428-5.64-2.61-11.158-6.058-15.573m64.658-56.792c3.4 1.107 5.746 4.31 8.255 7.71 2.275 3.094 4.64 6.316 8.072 8.47 2.223 1.395 4.608 2.138 6.904 2.883 1.645.526 3.2 1.015 4.59 1.705l2.392-4.862c-1.77-.87-3.579-1.45-5.35-2.012-2.079-.653-4.03-1.289-5.674-2.302-2.548-1.594-4.515-4.254-6.573-7.077-2.89-3.944-5.886-8.016-10.946-9.666-3.417-1.107-6.02-1.615-7.683-1.472l.429 5.406c.669-.054 2.548.238 5.584 1.216m6.788 26.711c-3.67.72-7.143 2.053-10.49 3.333-3.671 1.406-7.143 2.705-10.743 3.244a44 44 0 0 0-4.05-.691c-.993-.128-1.987-.22-2.999-.33-2.26-.219-4.411-.42-6.418-.982-4.68-1.29-8.835-4.53-12.557-7.662-.63-2.495-1.386-4.973-2.542-7.36-2.345-4.903-5.92-8.505-10.077-10.172l-2.012 5.042c2.873 1.16 5.438 3.802 7.188 7.474 1.696 3.546 2.523 7.615 3.332 11.557l3.598 17.559c1.08 5.226 2.175 10.633 4.683 15.645 2.978 5.933 7.456 10.096 12.644 11.746l1.651-5.168c-3.724-1.18-7.155-4.474-9.428-9.014-2.184-4.378-3.226-9.424-4.234-14.325l-3.021-14.738c2.8 1.956 5.854 3.66 9.305 4.62 2.459.673 4.936.928 7.34 1.148.94.09 1.898.182 2.838.31 1.482.182 2.965.473 4.43.819v.036c.034 0 .052-.018.09-.018 8.657 2.034 16.842 6.652 22.945 13.077l3.928-3.738c-4.857-5.122-10.711-9.123-17.144-11.86 1.066-.397 2.116-.794 3.164-1.19 3.275-1.262 6.386-2.452 9.586-3.082 9.675-1.924 19.869 1.378 28.869 4.28l1.668-5.17c-9.126-2.902-20.495-6.566-31.544-4.39M531.883 106.514c-1.68-2.334-3.322-4.92-5.072-7.653C521.74 90.92 516 81.91 507.795 77.145l-2.735 4.68c7.066 4.112 12.21 12.163 17.173 19.942 1.787 2.804 3.465 5.446 5.235 7.906 9.514 13.227 19.736 22.82 31.265 29.304l1.322-2.366 2.424-1.209c-9.4-18.723-11.82-37.943-6.812-54.12l-5.189-1.596c-4.662 15.056-3.433 32.43 3.384 49.704-7.823-5.74-15.083-13.268-21.979-22.876m95.91 2.831c.302 4.9.135 8.77-.556 12.168a30.3 30.3 0 0 1-5.038 11.585l.217.162c-.218.235-.417.487-.652.722l3.9 3.764c6.734-6.989 10.992-15.934 14.436-23.776.797-1.826 1.558-3.669 2.32-5.513.997-2.403 2.012-4.879 3.118-7.247a81.3 81.3 0 0 1 10.594-16.964c4.38-5.384 9.05-9.266 14.73-12.225l-2.508-4.812c-6.35 3.32-11.561 7.635-16.43 13.615a85.8 85.8 0 0 0-11.302 18.104c-1.143 2.475-2.193 5.006-3.208 7.463a284 284 0 0 1-2.266 5.403c-.58 1.338-1.214 2.693-1.848 4.084a68 68 0 0 0-.102-6.834c-.729-11.427-4.075-27.087-15.889-36.773l-3.44 4.192c10.315 8.4 13.265 22.523 13.923 32.882m-61.27 66.758.003-4.05-4.05-.004c-9.78-.01-17.725 7.918-17.735 17.7l-.005 4.05 4.05.004c9.8-.008 17.727-7.919 17.737-17.7m-49.945 26.254c9.764-.587 17.203-8.968 16.635-18.732l-.23-4.05-4.05.23c-9.764.587-17.204 8.968-16.636 18.733l.231 4.05Zm110.538-32.915-4.05-.004-.004 4.05c-.01 9.78 7.918 17.726 17.7 17.736l4.05.005.003-4.05c-.007-9.78-7.918-17.727-17.699-17.737m32.518 6.904-.366 4.032c-.86 9.744 6.326 18.34 16.07 19.2l4.032.366.366-4.031c.86-9.744-6.326-18.34-16.07-19.2Zm26.776.174 1.894 3.582c4.584 8.647 15.301 11.949 23.93 7.365l3.582-1.894-1.895-3.582c-4.583-8.647-15.3-11.948-23.93-7.365Zm20.438-24.296-3.383 2.239 2.237 3.382c5.398 8.161 16.389 10.397 24.547 4.981l3.384-2.238-2.239-3.383c-5.397-8.16-16.387-10.396-24.546-4.98M478.922 195.88l.122 4.05 4.05-.122c9.781-.28 17.474-8.442 17.195-18.225l-.122-4.05-4.05.123c-9.78.28-17.493 8.442-17.195 18.224m8.076-29.497 1.902-3.578-3.578-1.903c-8.636-4.583-19.361-1.285-23.945 7.37l-1.901 3.578 3.578 1.902c8.655 4.583 19.361 1.286 23.944-7.369M460.06 98.88l3.941-.935-.936-3.942c-2.268-9.513-11.825-15.381-21.338-13.113l-3.942.936.936 3.942c2.286 9.494 11.826 15.38 21.338 13.112m31.95 29.956 3.69-1.677-1.677-3.69c-4.059-8.9-14.576-12.816-23.477-8.74l-3.69 1.678 1.678 3.69c4.076 8.882 14.576 12.798 23.476 8.74m-51.266 9.817-2.077-3.474c-5.016-8.395-15.898-11.136-24.291-6.119l-3.473 2.076 2.075 3.472c5.017 8.396 15.898 11.137 24.293 6.12Zm2.921-26.99-3.959-.854-.854 3.959c-2.052 9.56 4.012 18.987 13.575 21.04l3.958.855.854-3.96c2.07-9.561-4.012-18.987-13.574-21.04m-12.744 49.65-.04 4.05 4.05.04c9.78.101 17.78-7.754 17.88-17.535l.04-4.05-4.05-.04c-9.78-.1-17.78 7.755-17.88 17.536m132.277-56.36 1.097 3.908 3.908-1.099c9.422-2.63 14.91-12.404 12.28-21.827l-1.098-3.907-3.906 1.099c-9.423 2.648-14.911 12.404-12.281 21.827m-29.603-11.657 2.896-2.834c6.986-6.846 7.088-18.055.244-25.04l-2.836-2.896-2.895 2.835c-6.988 6.844-7.09 18.054-.244 25.04Zm21.3-19.377 3.907-1.044c9.44-2.54 15.055-12.242 12.516-21.682l-1.044-3.907-3.907 1.045c-9.44 2.54-15.055 12.242-12.516 21.683Zm43.326 10.496-.474 4.033c-1.131 9.706 5.82 18.519 15.527 19.65l4.032.474.474-4.031c1.131-9.707-5.82-18.52-15.527-19.65Zm7.717-13.714 4.032.475.474-4.031c1.13-9.709-5.82-18.52-15.528-19.651l-4.032-.475-.474 4.032c-1.13 9.726 5.82 18.519 15.528 19.65m30.005 6.505 3.234 2.426 2.426-3.234c5.866-7.822 4.287-18.925-3.554-24.79l-3.233-2.427-2.427 3.234c-5.848 7.822-4.268 18.925 3.554 24.791m27.479 20.28-.964 3.938 3.94.964c9.508 2.324 19.097-3.488 21.421-12.978l.962-3.94-3.94-.962c-9.507-2.342-19.096 3.47-21.42 12.977M494.94 75.866l2.66-3.053-3.052-2.661c-7.37-6.426-18.562-5.66-24.988 1.71l-2.662 3.052 3.054 2.66c7.369 6.427 18.56 5.662 24.987-1.708m10.982-7.094 3.816-1.37c9.206-3.28 14.008-13.418 10.728-22.624l-1.352-3.816-3.817 1.37c-9.205 3.28-14.007 13.418-10.727 22.624Zm-13.172-7.1 3.959.907.907-3.959c2.18-9.543-3.776-19.024-13.32-21.203l-3.959-.908-.908 3.959c-2.18 9.526 3.777 19.024 13.32 21.203m177.205-4.693 3.758 1.504 1.505-3.758c3.626-9.091-.811-19.383-9.902-23.009l-3.758-1.504-1.504 3.759c-3.609 9.09.81 19.4 9.9 23.008m37.791 13.78 3.148-2.546-2.546-3.148c-6.157-7.6-17.31-8.768-24.911-2.611l-3.149 2.545 2.547 3.149c6.157 7.6 17.31 8.768 24.911 2.611m-24.662-16.533 4.033-.466c9.71-1.11 16.698-9.872 15.605-19.599l-.466-4.032-4.032.465c-9.71 1.11-16.698 9.872-15.587 19.6Zm28.584 51.45 1.93 3.564 3.564-1.932c8.593-4.674 11.787-15.41 7.113-24.02l-1.93-3.564-3.565 1.931c-8.592 4.674-11.786 15.428-7.112 24.02m6.856 12.826-4.05-.058-.058 4.05c-.136 9.78 7.683 17.816 17.464 17.953l4.05.058.058-4.05c.138-9.78-7.683-17.816-17.464-17.953m31.746-14.99c-8.166-5.38-19.16-3.094-24.521 5.072l-2.228 3.378 3.379 2.228c8.166 5.378 19.162 3.094 24.521-5.072l2.228-3.379Z"/><path fill="#f7bd95" d="M78.103 472.813q-.004 4.22-1.294 7.423-1.29 3.225-3.616 5.502t-5.6 3.74q-3.253 1.44-7.201 2.136l20.374 23.444q1.758 2.102 4.576 3.57 2.82 1.447 6.34 1.452l-.004 3.52-20.85-.023-21.815-26.785q-2.187-2.642-3.764-3.614-1.669-.882-3.09-.883l-.02 17.262q-.004 4.58 1.053 7.041 1.06 2.46 5.007 3.006 2.483.432 6.702.437l-.004 3.52-34.954-.038.004-3.52q3.882.005 6.094-.873 2.19-.877 2.802-4.127.362-1.94.366-5.032l.044-40.64q.003-3.7-.513-6.25-.538-2.55-3.358-3.276-1.67-.34-4.4-.525l.004-3.52 30.463.033q12.75.014 19.695 4.512 6.968 4.497 6.959 12.508m-13.743.415q.007-5.8-3.51-9.144-3.517-3.364-9.406-3.371l-7.672-.008q-1.58-.002-1.582 1.51l-.026 24.821 5.732.006q7.92.009 12.188-3.033 4.267-3.041 4.276-10.781m90.574-18.204q8.62.009 15.364 2.926 6.72 2.895 11.388 7.301 4.486 4.247 7.639 10.523 3.173 6.3 3.164 14.582-.004 3.947-.91 7.468a32.5 32.5 0 0 1-2.377 6.608 30.8 30.8 0 0 1-3.48 5.592 39 39 0 0 1-4.18 4.509q-4.674 4.306-11.402 7.164t-15.281 2.85q-8.53-.009-15.251-2.883-6.744-2.871-11.387-7.188-4.486-4.042-7.708-10.117-3.197-6.073-3.189-14.083.01-8.281 3.176-14.575 3.186-6.27 7.773-10.507 4.563-4.395 11.313-7.277 6.727-2.903 15.347-2.893m-.068 63.79q5.642.007 9.637-2.132 4.02-2.162 6.663-5.499 2.893-3.607 4.456-8.841 1.539-5.234 1.546-11.733.01-9.951-3.186-17.22-3.219-7.27-9.804-10.616-4.15-2.036-9.25-2.04-5.8-.006-9.728 2.245-3.906 2.23-6.55 5.747-2.915 3.969-4.456 9.474-1.563 5.481-1.57 12.363-.01 9.59 3.255 16.364 3.243 6.773 9.76 9.87 4.037 2.013 9.227 2.019m109.464-63.676q8.619.01 15.342 2.927 6.743 2.896 11.387 7.301 4.485 4.247 7.66 10.523 3.154 6.3 3.145 14.582-.005 3.948-.888 7.468a34.4 34.4 0 0 1-2.377 6.608 30.8 30.8 0 0 1-3.48 5.593 39 39 0 0 1-4.18 4.508q-4.675 4.306-11.403 7.164-6.75 2.859-15.279 2.85-8.53-.01-15.273-2.882-6.721-2.873-11.388-7.188-4.485-4.044-7.684-10.118-3.198-6.073-3.19-14.083.01-8.28 3.176-14.575 3.166-6.27 7.75-10.506 4.585-4.395 11.314-7.277 6.75-2.903 15.369-2.894m-.068 63.792q5.642.006 9.638-2.133 3.996-2.162 6.64-5.499 2.914-3.607 4.455-8.841 1.562-5.234 1.569-11.733.01-9.951-3.208-17.22-3.197-7.27-9.804-10.616-4.128-2.035-9.228-2.04-5.8-.006-9.728 2.246-3.93 2.23-6.573 5.747-2.892 3.968-4.455 9.473-1.54 5.481-1.547 12.363-.01 9.59 3.232 16.364 3.264 6.773 9.76 9.87 4.06 2.013 9.249 2.019m139.184-43.402-3.79-.004q-.333-5.553-2.18-9.255-1.846-3.68-6.426-4.927-2.639-.612-6.16-.615l-2.21-.003a63 63 0 0 0-3.52.087 15 15 0 0 0-2.89.427q-.971.269-1.421.742-.43.496-.432 1.467l-.049 46.1q-.005 4.4 1.099 6.794 1.08 2.37 4.51 3.254 2.391.702 6.249.796l-.004 3.52-36.871-.039.004-3.52q4.581-.085 7.74-1.188 3.184-1.08 3.977-4.78.363-2.03.366-4.851l.049-46.1q.001-1.67-1.284-2.077-1.286-.41-3.045-.568-2.368-.103-4.74-.095-3.43-.004-6.25.332-2.82.357-4.921 1.665-2.642 1.779-3.795 4.891-1.155 3.114-1.25 7.874l-3.43-.003.9-19.36 68.915.074Zm55.57 49.34q-3.09-.005-5.595-.435a27 27 0 0 1-4.624-1.245c-1.4-.53-2.752-1.18-4.038-1.946a70 70 0 0 1-3.968-2.554l-1.765 5.278-2.1-.002-1.306-22.453 3.43.003q.535 3.88 2.158 7.178 1.622 3.319 4.214 5.691 2.592 2.373 6.02 3.753 3.429 1.358 7.739 1.362 4.851.005 8.418-1.661 3.569-1.667 5.24-4.847 1.062-1.917 1.065-4.399.003-2.55-.786-3.95-.787-1.4-2.388-2.732-1.848-1.402-5.007-2.916-3.247-1.493-8.345-3.44-10.308-3.96-15.221-9.245-4.936-5.196-4.93-12.326.005-3.52 1.023-6.295 1.019-2.773 2.78-4.916a17.2 17.2 0 0 1 4.089-3.651 24.5 24.5 0 0 1 5.08-2.477q3.95-1.304 8.8-1.3 5.281.006 9.094 1.59a33 33 0 0 1 7.17 4.07l1.585-4.399 2.121.003.95 19-3.43-.003a28.6 28.6 0 0 0-2.34-5.69 19.8 19.8 0 0 0-3.515-4.742 14.9 14.9 0 0 0-4.826-3.254q-2.774-1.2-6.294-1.203-2.46-.003-4.672.605-2.19.606-3.86 1.846a9.65 9.65 0 0 0-2.689 3.043q-1.017 1.804-1.02 4.083 0 2.28.74 3.61.745 1.312 2.164 2.463 2.368 1.942 5.368 3.166 2.976 1.243 6.677 2.579 5.368 2.014 9.81 4.32 4.444 2.285 7.87 5.628a23.7 23.7 0 0 1 3.876 5.374q1.487 2.91 1.481 7.312-.005 5.01-2.175 8.573-2.148 3.563-5.151 5.93-3.433 2.568-8.196 4.098-4.74 1.53-10.72 1.523m148.012-69.367q8.62.01 15.34 2.927 6.723 2.895 11.389 7.301 4.485 4.247 7.639 10.523 3.173 6.3 3.165 14.582-.005 3.946-.888 7.468a33.5 33.5 0 0 1-2.399 6.608 30.8 30.8 0 0 1-3.48 5.592 36.4 36.4 0 0 1-4.18 4.509q-4.654 4.306-11.403 7.164-6.729 2.859-15.257 2.85-8.553-.009-15.274-2.883-6.744-2.871-11.388-7.188-4.486-4.042-7.684-10.117-3.22-6.073-3.212-14.083.009-8.282 3.198-14.575 3.166-6.27 7.75-10.507 4.586-4.395 11.313-7.277 6.728-2.903 15.37-2.893m-.067 63.792q5.62.006 9.637-2.133 3.997-2.161 6.64-5.5 2.916-3.606 4.455-8.84t1.547-11.733q.01-9.951-3.186-17.22-3.218-7.269-9.805-10.617-4.127-2.034-9.227-2.04-5.82-.005-9.728 2.246-3.929 2.23-6.572 5.747-2.914 3.969-4.456 9.474-1.54 5.481-1.547 12.363-.01 9.59 3.232 16.363 3.243 6.774 9.76 9.872 4.038 2.012 9.25 2.018m125.66 5.864-38.934-55.574h-.361l-.042 39.601a80 80 0 0 0 .085 3.881q.09 1.85.539 3.296.427 1.444 1.306 2.461.878 1.015 2.549 1.379 1.76.43 4.67.524l-.004 3.52-26.13-.028.003-3.52q4.4-.085 6.817-1.189 2.416-1.08 2.961-4.961.34-2.37.345-6.52l.037-35.36a90 90 0 0 0-.085-4.153q-.088-1.941-.516-3.52-.45-1.581-1.328-2.687-.879-1.084-2.458-1.628-1.85-.52-4.828-.705l.004-3.52 24.55.026 35.397 50.9.36.001.038-35.72a80 80 0 0 0-.085-3.882q-.089-1.85-.517-3.295-.448-1.446-1.327-2.507-.88-1.061-2.459-1.423-1.85-.432-4.76-.526l.004-3.52 26.152.028-.003 3.52q-4.4.086-6.817 1.19-2.438 1.08-2.96 4.96-.363 2.46-.369 6.522l-.055 52.441Zm161.192-51.48q-.005 4.219-1.293 7.422-1.29 3.225-3.616 5.502-2.328 2.276-5.6 3.74-3.252 1.44-7.202 2.136l20.398 23.444q1.734 2.101 4.554 3.57 2.819 1.447 6.338 1.451l-.004 3.52-20.85-.022-21.791-26.785q-2.208-2.642-3.787-3.614-1.67-.882-3.091-.883l-.019 17.262q-.005 4.58 1.054 7.041 1.059 2.46 5.029 3.006 2.46.432 6.68.436l-.005 3.52-34.931-.037.003-3.52q3.86.005 6.071-.873 2.19-.877 2.804-4.127.362-1.94.365-5.032l.043-40.64q.004-3.7-.511-6.25-.54-2.55-3.337-3.276-1.692-.34-4.422-.525l.003-3.52 30.463.033q12.75.014 19.696 4.512 6.967 4.497 6.958 12.508m-13.742.415q.006-5.8-3.51-9.144-3.517-3.364-9.407-3.371l-7.65-.008q-1.601-.002-1.603 1.51l-.027 24.821 5.732.006q7.92.009 12.188-3.033t4.277-10.781m85.22 50.433-31.41-.033.004-3.52q4.218-.086 6.297-1.235 2.054-1.126 2.6-4.917.362-2.37.368-6.52l.037-35.36a88 88 0 0 0-.085-4.062q-.089-1.94-.448-3.52-.36-1.58-1.193-2.732-.834-1.129-2.232-1.673-1.67-.52-4.4-.704l.004-3.52 29.65.031-.003 3.52q-3.949.268-5.756 1.574-1.807 1.33-2.262 4.94-.34 2.46-.345 6.16l-.038 36.24a82 82 0 0 0 .085 3.971q.089 1.851.517 3.34.448 1.49 1.327 2.506.88 1.017 2.549 1.379 1.76.522 4.74.615Zm57.744.941q-3.09-.003-5.595-.435a27 27 0 0 1-4.625-1.245 25.5 25.5 0 0 1-4.038-1.945 70 70 0 0 1-3.968-2.554l-1.766 5.278-2.099-.002-1.307-22.454 3.43.004q.536 3.881 2.159 7.177 1.62 3.32 4.214 5.692 2.592 2.373 6.02 3.752 3.428 1.358 7.74 1.363 4.85.005 8.418-1.662 3.566-1.666 5.24-4.846 1.062-1.917 1.065-4.399.003-2.55-.786-3.95-.787-1.4-2.388-2.732-1.85-1.402-5.007-2.917-3.249-1.493-8.346-3.438-10.308-3.961-15.22-9.247-4.939-5.195-4.93-12.325.003-3.52 1.022-6.295t2.78-4.916a17 17 0 0 1 4.111-3.651 24 24 0 0 1 5.058-2.477q3.951-1.305 8.801-1.3 5.28.006 9.093 1.59a33 33 0 0 1 7.171 4.07l1.585-4.399 2.12.002.95 19.001-3.43-.003a29.5 29.5 0 0 0-2.317-5.69 20.7 20.7 0 0 0-3.515-4.742 15.1 15.1 0 0 0-4.849-3.255q-2.774-1.199-6.294-1.202-2.46-.003-4.671.605-2.19.606-3.862 1.846a9.65 9.65 0 0 0-2.688 3.043q-1.016 1.804-1.02 4.083-.003 2.28.742 3.61.742 1.311 2.163 2.463 2.368 1.942 5.367 3.166a146 146 0 0 0 6.677 2.579q5.368 2.013 9.811 4.32 4.443 2.285 7.87 5.627a23.7 23.7 0 0 1 3.875 5.375q1.486 2.91 1.482 7.312-.006 5.01-2.176 8.573-2.149 3.563-5.152 5.93-3.432 2.568-8.194 4.098-4.742 1.529-10.722 1.522m95.203-63.87-9.95-.011q-2.28-.003-2.822.516-.521.517-.523 2.73l-.024 22.361q5.62.006 9.05-.35 3.18-.359 5.169-1.327 1.964-.945 2.847-3.337.791-2.097 1.247-5.707l3.25.003-.028 25.77-3.25-.003q-.447-3.16-1.234-5.35-.787-2.213-2.976-3.523-1.94-1.064-5.189-1.427-3.36-.274-8.89-.28l-.019 18.141q-.004 4.581 1.956 6.727 1.983 2.169 5.954 2.782 2.89.522 7.13.527 7.041.008 11.397-1.568 4.357-1.575 6.55-6.334 1.427-2.886 2.379-7.376l3.52.003-1.422 20.15-59.662-.063.004-3.52q3.79-.087 6.026-.964 2.258-.877 2.87-4.037.341-1.94.344-5.032l.043-40.64q.004-3.7-.557-6.25-.562-2.55-3.382-3.276-1.67-.34-4.31-.524l.004-3.52 55.624.059.592 17.24-3.792-.004q-.694-5.19-2.901-8.126-2.187-2.958-7.105-3.933-3.27-.524-7.92-.529"/><path fill="#bc6c4c" d="m133.837 612.126-16.551-.017.01-9.84 10.447.011c1.012.001 1.766-.808 1.767-1.791.001-.984-.75-1.795-1.763-1.796l-10.447-.011.01-9.84 16.553.017a1.78 1.78 0 0 0 1.797-1.763 1.767 1.767 0 0 0-1.794-1.796l-20.112-.02-.032 30.384 20.111.021c1.013.001 1.796-.779 1.797-1.763a1.803 1.803 0 0 0-1.793-1.796m50.004-26.686c-.78-.202-1.562.086-1.996.78l-12.785 20.996-12.74-21.024c-.433-.694-1.213-.984-1.995-.783-.782.173-1.304.867-1.304 1.706l-.029 26.826c-.001.984.78 1.766 1.792 1.767.926 0 1.767-.78 1.768-1.763l.022-20.43 10.977 18.126c.289.52.896.87 1.504.87a1.85 1.85 0 0 0 1.535-.867l10.986-18.103-.022 20.43a1.77 1.77 0 0 0 1.763 1.767c1.013.001 1.795-.78 1.796-1.763l.029-26.826c0-.84-.519-1.534-1.3-1.709m38.445 12.861c1.563-1.445 2.607-3.152 2.61-5.437.003-3.473-3.553-7.47-7.893-7.475l-11.98-.013-.032 30.385 11.98.013c5.47.005 9.931-4.88 9.936-9.482.004-3.559-1.845-6.223-4.621-7.99m-13.732 13.904.013-11.894 8.42.009c3.647.004 6.364 2.321 6.36 5.967-.003 2.78-2.726 5.93-6.372 5.927Zm.016-15.453.009-7.813 8.42.009c2.519.002 4.338 2.261 4.337 3.91-.003 2.518-1.827 3.905-4.345 3.903Zm60.8-.196c.007-6.598-5.372-11.118-11.94-11.125l-10.216-.011c-1.013-.001-1.765.78-1.766 1.792l-.029 26.826c-.001.984.75 1.766 1.763 1.767a1.773 1.773 0 0 0 1.768-1.763l.007-6.396 5.67.006 7.633 7.648c.317.346.81.52 1.243.521.434 0 .955-.173 1.246-.519a1.73 1.73 0 0 0 .002-2.518l-5.319-5.301c5.644-1.007 9.931-5.025 9.938-10.929m-20.41 7.53.017-15.104 8.45.009c4.745.005 8.388 2.786 8.383 7.56-.005 4.776-3.654 7.55-8.4 7.545Zm61.628 9.326-12.039-26.809c-.29-.695-.954-1.13-1.649-1.13-.694-.001-1.33.432-1.65 1.127l-12.355 26.784c-.435.868-.002 1.94.923 2.287.868.436 1.91.002 2.345-.952l3.915-8.215 13.456.015 3.811 8.223c.29.694.954 1.129 1.65 1.13.201 0 .462-.087.693-.174.898-.346 1.304-1.388.9-2.285m-18.943-10.466 5.25-11.165 5.11 11.176Zm61.835 4.29c-.779-.608-1.91-.493-2.517.288-2.434 3.15-5.91 4.826-9.845 4.821-7.031-.007-12.495-4.614-12.488-11.646.008-7.032 5.482-11.627 12.513-11.62 3.387.004 6.452 1.28 8.852 3.656.636.695 1.764.696 2.46.031a1.686 1.686 0 0 0 .002-2.518c-3.035-3.07-7.027-4.724-11.31-4.729-8.855-.009-16.066 6.321-16.076 15.176s7.19 15.2 16.044 15.21c4.977.005 9.58-2.247 12.682-6.21.607-.721.465-1.85-.317-2.46m38.628 5.164-16.583-.018.01-9.84 10.476.011c.983.001 1.766-.808 1.767-1.791.001-.984-.78-1.795-1.763-1.796l-10.476-.011.01-9.84 16.583.018a1.78 1.78 0 0 0 1.795-1.764 1.767 1.767 0 0 0-1.792-1.795l-20.14-.022-.033 30.385 20.14.022c1.013 0 1.796-.78 1.797-1.764a1.803 1.803 0 0 0-1.792-1.795m50.512 13.453.045-42.712 4.862.005-.045 42.712Zm76.294-13.317-16.58-.017.01-9.84 10.446.01a1.784 1.784 0 0 0 1.796-1.79 1.784 1.784 0 0 0-1.792-1.796l-10.447-.011.01-9.84 16.582.017a1.754 1.754 0 0 0 1.767-1.763c.001-1.012-.75-1.795-1.763-1.796l-20.14-.021-.033 30.385 20.14.021a1.736 1.736 0 0 0 1.768-1.763c0-.955-.751-1.795-1.763-1.796m39.27.042-16.582-.018.026-25.032a1.78 1.78 0 0 0-1.763-1.796 1.767 1.767 0 0 0-1.796 1.792l-.028 26.826c-.001.984.778 1.766 1.792 1.767l18.346.02c1.013.001 1.795-.78 1.796-1.763a1.8 1.8 0 0 0-1.792-1.796m38.805.041-16.581-.018.01-9.84 10.475.012c.984 0 1.766-.808 1.767-1.792s-.778-1.794-1.763-1.795l-10.475-.012.01-9.84 16.581.018a1.78 1.78 0 0 0 1.796-1.763 1.767 1.767 0 0 0-1.792-1.796l-20.14-.021-.032 30.385 20.14.021c1.013.001 1.795-.78 1.796-1.763a1.803 1.803 0 0 0-1.792-1.796m47.602-26.601c-.867-.435-1.852-.09-2.374.837l-12.7 23.599-12.649-23.627c-.52-.926-1.532-1.274-2.401-.842-.868.405-1.305 1.533-.813 2.373l14.238 26.869c.346.637.954.985 1.619.986.637 0 1.245-.346 1.593-.983l14.323-26.838c.464-.84.033-1.969-.836-2.374m39.557 27.793L672.11 587c-.29-.694-.954-1.13-1.649-1.13-.694 0-1.33.433-1.65 1.127l-12.355 26.782c-.435.869-.003 1.94.923 2.287.868.436 1.91.002 2.345-.951l3.915-8.215 13.456.014 3.811 8.223c.29.694.954 1.13 1.649 1.13.202 0 .463-.087.694-.173.897-.346 1.304-1.388.9-2.285m-18.943-10.465 5.25-11.165 5.11 11.175Zm55.058-17.421-24.482-.026a1.767 1.767 0 0 0-1.796 1.792 1.78 1.78 0 0 0 1.792 1.768l10.447.011-.026 25.06c-.001.984.779 1.766 1.792 1.767a1.753 1.753 0 0 0 1.767-1.763l.026-25.06 10.476.01a1.77 1.77 0 0 0 1.767-1.763c.001-1.012-.779-1.795-1.763-1.796m38.778 26.867-16.582-.018.01-9.84 10.447.012a1.784 1.784 0 0 0 1.796-1.792 1.784 1.784 0 0 0-1.792-1.795l-10.447-.011.01-9.84 16.582.017a1.77 1.77 0 0 0 1.767-1.763c.001-1.012-.78-1.795-1.763-1.796l-20.14-.021-.033 30.385 20.14.021a1.754 1.754 0 0 0 1.768-1.763c0-.955-.78-1.795-1.763-1.796m50.51 13.452.045-42.712 4.862.005-.046 42.712Zm57.947-40.163a1.767 1.767 0 0 0-1.796 1.792l-.028 26.826c-.001.984.779 1.766 1.792 1.767a1.77 1.77 0 0 0 1.767-1.763l.028-26.826a1.78 1.78 0 0 0-1.763-1.796m43.87.047c-.926-.001-1.766.78-1.767 1.792l-.023 21.414-17.136-22.444c-.52-.696-1.302-.957-2.025-.697-.695.259-1.216.953-1.217 1.705l-.028 26.826a1.753 1.753 0 0 0 1.763 1.767c.955.001 1.795-.779 1.796-1.763l.023-21.472 17.165 22.474c.346.493.867.782 1.417.783.174 0 .405-.029.579-.087.723-.259 1.216-.953 1.217-1.676l.028-26.826a1.767 1.767 0 0 0-1.792-1.796m29.997 11.405c-2.518-.003-4.34-.96-4.337-3.478.002-2.518 1.827-4.338 4.344-4.335 1.621.001 2.893.697 3.732 2.058.52.84 1.56 1.13 2.4.581.841-.519 1.102-1.59.583-2.43a7.86 7.86 0 0 0-6.71-3.77c-4.341-.004-7.904 3.552-7.908 7.892-.005 4.341 3.551 7.036 7.892 7.04 3.646.005 6.364 1.888 6.36 5.505-.004 3.676-2.726 6.393-6.372 6.39s-6.365-2.727-6.36-6.403c0-.983-.838-1.766-1.793-1.767-1.013-.001-1.795.78-1.796 1.763-.005 5.5 4.475 9.96 9.945 9.966s9.958-4.446 9.964-9.945c.006-5.469-4.475-9.062-9.944-9.067m40.149-11.33-10.187-.012c-1.012 0-1.766.78-1.767 1.793l-.028 26.826a1.736 1.736 0 0 0 1.763 1.766c.955.001 1.796-.779 1.797-1.763l.006-6.396 8.392.01c6.626.006 11.985-4.503 11.992-11.101s-5.342-11.118-11.968-11.125m-8.412 18.656.016-15.105 8.392.01c4.803.004 8.447 2.786 8.442 7.56-.005 4.775-3.655 7.55-8.458 7.544Zm40.301-18.622a1.767 1.767 0 0 0-1.796 1.792l-.028 26.826c-.001.984.779 1.766 1.792 1.767a1.77 1.77 0 0 0 1.767-1.763l.028-26.825a1.78 1.78 0 0 0-1.763-1.796m45.594 11.16c.007-6.596-5.37-11.117-11.968-11.124l-10.186-.011a1.767 1.767 0 0 0-1.796 1.792l-.028 26.826c-.001.984.779 1.766 1.792 1.767a1.77 1.77 0 0 0 1.767-1.763l.006-6.396 5.643.006 7.632 7.648c.347.346.839.52 1.273.521.434 0 .955-.173 1.244-.518a1.78 1.78 0 0 0 .003-2.518l-5.318-5.302c5.644-1.007 9.93-5.024 9.936-10.928m-20.408 7.53.016-15.104 8.42.009c4.775.005 8.418 2.787 8.413 7.56-.005 4.776-3.654 7.55-8.428 7.545Zm58.763 8.223-16.58-.017.01-9.838 10.475.01c.984.002 1.766-.807 1.767-1.791s-.778-1.795-1.763-1.796l-10.475-.011.01-9.84 16.581.017a1.78 1.78 0 0 0 1.796-1.763 1.767 1.767 0 0 0-1.792-1.796l-20.14-.021-.032 30.385 20.14.021c1.013.001 1.795-.779 1.796-1.763a1.803 1.803 0 0 0-1.793-1.796"/></svg>